<?xml version="1.0" encoding="UTF-8"?>
<svg version="1.1" xmlns="http://www.w3.org/2000/svg" width="1080" height="1080">
<path d="M0 0 C356.4 0 712.8 0 1080 0 C1080 356.4 1080 712.8 1080 1080 C723.6 1080 367.2 1080 0 1080 C0 723.6 0 367.2 0 0 Z " fill="#000000" transform="translate(0,0)"/>
<path d="M0 0 C1.33664955 -0.01429802 1.33664955 -0.01429802 2.70030212 -0.02888489 C3.66488846 -0.02797348 4.62947479 -0.02706207 5.62329102 -0.02612305 C6.61216812 -0.03040817 7.60104523 -0.0346933 8.61988831 -0.03910828 C10.71386956 -0.04485816 12.8078708 -0.04534701 14.90185547 -0.04101562 C18.11077887 -0.03785795 21.31877874 -0.06129897 24.52758789 -0.08666992 C26.55948777 -0.08894302 28.59139013 -0.08964636 30.62329102 -0.08862305 C32.06713417 -0.10243767 32.06713417 -0.10243767 33.54014587 -0.11653137 C34.43439774 -0.11030258 35.3286496 -0.10407379 36.25 -0.09765625 C37.03672592 -0.09828568 37.82345184 -0.0989151 38.63401794 -0.0995636 C41.25980288 0.37844188 42.01785432 1.22740829 43.68969727 3.2746582 C43.99437231 6.17070779 44.11684792 8.85530783 44.10620117 11.75341797 C44.11478653 12.61871124 44.12337189 13.48400452 44.13221741 14.3755188 C44.15733599 17.23911613 44.16166135 20.10236691 44.16625977 22.96606445 C44.18056404 24.95239833 44.19632 26.93872223 44.21347046 28.92503357 C44.25537907 34.1570335 44.28033956 39.38897167 44.30096436 44.62109375 C44.33674313 53.00000642 44.39766191 61.37876675 44.45945358 69.75752068 C44.47859098 72.69019914 44.49028777 75.6228369 44.50088501 78.55555725 C44.51109369 80.34547006 44.52145132 82.13538203 44.53198242 83.92529297 C44.53302475 84.74560501 44.53406708 85.56591705 44.53514099 86.41108704 C44.46774355 90.47422734 44.46774355 90.47422734 45.68969727 94.2746582 C46.63294861 94.27830383 47.57619995 94.28194946 48.54803467 94.28570557 C57.43554587 94.32264035 66.32271008 94.38039611 75.20995712 94.45856094 C79.77906485 94.49807719 84.34797866 94.5302452 88.91723633 94.5456543 C93.32653282 94.56079375 97.73529634 94.59519049 102.14435577 94.64296722 C103.82681904 94.65780913 105.50935838 94.66570083 107.1918869 94.66654205 C109.54818094 94.66890513 111.90299411 94.69592861 114.2590332 94.72875977 C115.30344574 94.72121422 115.30344574 94.72121422 116.36895752 94.71351624 C119.56870862 94.78253841 121.45376783 95.11420819 124.12176514 96.9286499 C126.12522567 99.92631476 126.19668825 101.76215436 126.20727539 105.35668945 C126.21988403 106.58476318 126.23249268 107.81283691 126.2454834 109.078125 C126.23832353 110.41447525 126.23011953 111.75082025 126.22094727 113.0871582 C126.22364303 114.46191685 126.22752616 115.83667364 126.23254395 117.21142578 C126.2384352 120.08978465 126.22988903 122.96764629 126.21118164 125.84594727 C126.18839115 129.53169837 126.2015164 133.21628443 126.2254715 136.9019928 C126.23994025 139.73995713 126.2353188 142.57764618 126.22496033 145.4156189 C126.22229596 146.77436461 126.22555267 148.13313549 126.23487854 149.49185181 C126.24505967 151.39210519 126.22678456 153.29244644 126.20727539 155.19262695 C126.20409302 156.27310303 126.20091064 157.3535791 126.19763184 158.46679688 C125.68969727 161.2746582 125.68969727 161.2746582 124.11404419 163.62265015 C120.76722585 165.90325232 118.41779718 165.78008897 114.38256836 165.78881836 C113.65367905 165.79594345 112.92478973 165.80306854 112.17381287 165.81040955 C109.76997696 165.82967437 107.36702211 165.82141593 104.96313477 165.8137207 C103.29211133 165.82362539 101.62109882 165.83556577 99.95010376 165.84945679 C95.55484367 165.88182492 91.15983288 165.89221218 86.76446533 165.89630127 C79.72196818 165.90505802 72.67967571 165.94043903 65.63734818 165.9884758 C63.17436409 166.00109909 60.71163672 166.00029992 58.24862671 165.99819946 C56.7450948 166.00477715 55.24156468 166.01178288 53.73803711 166.01928711 C52.42217621 166.02054596 51.10631531 166.02180481 49.75057983 166.02310181 C46.58182136 165.95132542 46.58182136 165.95132542 44.68969727 168.2746582 C44.38383002 171.2263051 44.38383002 171.2263051 44.43572998 174.75660706 C44.43261 175.4298355 44.42949002 176.10306395 44.42627549 176.79669327 C44.41826743 179.06360596 44.42463011 181.33025304 44.4309082 183.59716797 C44.4281994 185.2183091 44.4246391 186.839449 44.42028809 188.46058655 C44.41114351 192.87418529 44.41471816 197.28769088 44.42104626 201.70129132 C44.42610162 206.32022688 44.42141553 210.93915434 44.41827393 215.55809021 C44.41463037 223.32340935 44.41944089 231.08869052 44.42895508 238.85400391 C44.43981359 247.81979736 44.43633461 256.78549966 44.42530227 265.75129086 C44.41620842 273.4507791 44.41495517 281.15023998 44.42017961 288.84973186 C44.42329124 293.44706808 44.4237314 298.04436158 44.41710663 302.64169502 C44.41130426 306.97138511 44.41538276 311.30095864 44.42689514 315.63063622 C44.42952747 317.21522453 44.42880118 318.79982274 44.42436981 320.38440704 C44.39299547 332.7492836 44.90092105 343.1198901 52.68969727 353.2746582 C60.87474198 361.47693459 70.52158814 362.64746806 81.58430481 362.66441345 C82.33301157 362.66123549 83.08171833 362.65805752 83.85311317 362.65478325 C86.22015287 362.64558812 88.58641483 362.65598792 90.95341492 362.67140198 C97.67580157 362.71129262 104.39812001 362.71269534 111.12060547 362.71044922 C115.24842854 362.71039815 119.37582449 362.72953459 123.5035305 362.75978279 C125.83257554 362.77059915 128.16080377 362.75849053 130.48982239 362.74595642 C131.91623749 362.75485824 133.34264593 362.76493172 134.76904297 362.77636719 C136.63360893 362.77611794 136.63360893 362.77611794 138.5358429 362.77586365 C141.68969727 363.2746582 141.68969727 363.2746582 144.09385681 364.90449524 C146.18642986 368.0124119 146.17274831 369.96107395 146.14379883 373.69555664 C146.1434967 374.99660339 146.14319458 376.29765015 146.1428833 377.63812256 C146.12245812 379.05343236 146.10159416 380.46873588 146.08032227 381.8840332 C146.07285872 383.33562439 146.06716632 384.78722568 146.06317139 386.23883057 C146.0479237 390.05312078 146.00865035 393.86679842 145.96435547 397.68084717 C145.92338349 401.57531447 145.90515632 405.46988109 145.88500977 409.36450195 C145.84215439 417.00149949 145.77391466 424.6379929 145.68969727 432.2746582 C132.8145701 432.34452868 119.93948892 432.39765618 107.06420994 432.43009472 C101.08407907 432.44567273 95.10407904 432.46676548 89.12402344 432.50097656 C83.34033379 432.53385278 77.55676906 432.55157016 71.77299309 432.55928993 C69.57927424 432.56478316 67.38556131 432.57550813 65.19189644 432.59184837 C52.33659989 432.68369502 40.2531604 432.09073917 27.68969727 429.2746582 C26.7606105 429.07241135 25.83152374 428.87016449 24.87428284 428.66178894 C12.49059991 425.75869155 -0.08367506 417.79035644 -9.31030273 409.2746582 C-10.23456055 408.43032227 -11.15881836 407.58598633 -12.11108398 406.71606445 C-28.10454647 391.45843109 -37.73390995 370.32614936 -38.49731255 348.17806625 C-38.59774457 343.46809347 -38.58922479 338.75840842 -38.58154297 334.04760742 C-38.58593912 332.24762234 -38.59124449 330.44763929 -38.59738159 328.6476593 C-38.60880586 324.79876338 -38.61433533 320.94992195 -38.61526299 317.10100937 C-38.61721494 311.0165996 -38.63532491 304.93230193 -38.65602112 298.84793091 C-38.7050354 283.75023478 -38.73615801 268.65250877 -38.75732422 253.55474854 C-38.77383328 241.79019134 -38.79656801 230.02573177 -38.84034497 218.26124012 C-38.86214845 212.20979402 -38.87017698 206.15853335 -38.86795223 200.10705066 C-38.86961433 196.35385558 -38.88363207 192.60078278 -38.90116501 188.84763145 C-38.90678088 187.10410256 -38.90723478 185.36054849 -38.9022274 183.61701775 C-38.89612155 181.24284016 -38.90825156 178.86944047 -38.92503357 176.49533081 C-38.91571585 175.45367462 -38.91571585 175.45367462 -38.90620989 174.39097488 C-38.94325521 171.52841402 -39.00065138 169.70005769 -40.7134409 167.34702492 C-42.7514025 165.97843927 -44.01174619 165.89677525 -46.45874023 165.88989258 C-47.28970215 165.87978149 -48.12066406 165.86967041 -48.97680664 165.85925293 C-49.87061035 165.86227417 -50.76441406 165.86529541 -51.68530273 165.8684082 C-52.60617676 165.85757202 -53.52705078 165.84673584 -54.47583008 165.83557129 C-57.42072585 165.80126158 -60.36523319 165.78570462 -63.31030273 165.7746582 C-67.18567836 165.76012238 -71.06018208 165.72650783 -74.93530273 165.6809082 C-75.82910645 165.68392944 -76.72291016 165.68695068 -77.64379883 165.69006348 C-78.47476074 165.67995239 -79.30572266 165.66984131 -80.16186523 165.65942383 C-80.89228027 165.65736938 -81.62269531 165.65531494 -82.37524414 165.65319824 C-84.98492453 165.14268734 -85.81151368 164.47335944 -87.31030273 162.2746582 C-87.69125366 159.5423584 -87.69125366 159.5423584 -87.69848633 156.19848633 C-87.70794281 154.94708862 -87.71739929 153.69569092 -87.72714233 152.40637207 C-87.72177263 151.03954756 -87.71561968 149.67272594 -87.70874023 148.3059082 C-87.71076116 146.90490568 -87.71367276 145.50390419 -87.71743774 144.10290527 C-87.72186027 141.16737854 -87.71543269 138.23212574 -87.70141602 135.29663086 C-87.68432374 131.53358404 -87.69416537 127.77117909 -87.71213341 124.00815582 C-87.72297343 121.11536827 -87.719524 118.22273293 -87.71175003 115.3299408 C-87.70974861 113.94245833 -87.71220531 112.55496206 -87.71918869 111.16749573 C-87.72680579 109.22860986 -87.71313767 107.28967555 -87.69848633 105.35083008 C-87.69609955 104.24735229 -87.69371277 103.14387451 -87.69125366 102.00695801 C-87.31030273 99.2746582 -87.31030273 99.2746582 -86.05105591 97.41894531 C-83.89725372 96.00313972 -82.63842459 95.89694508 -80.07006836 95.88989258 C-79.21908569 95.87978149 -78.36810303 95.86967041 -77.49133301 95.85925293 C-76.57565552 95.86227417 -75.65997803 95.86529541 -74.71655273 95.8684082 C-73.77348267 95.85757202 -72.8304126 95.84673584 -71.85876465 95.83557129 C-67.82036362 95.78962911 -63.78202391 95.77821649 -59.7434082 95.76342773 C-56.79672158 95.74776144 -53.85057728 95.71476473 -50.90405273 95.6809082 C-49.98837524 95.68392944 -49.07269775 95.68695068 -48.12927246 95.69006348 C-47.27828979 95.67995239 -46.42730713 95.66984131 -45.55053711 95.65942383 C-44.80235718 95.65736938 -44.05417725 95.65531494 -43.2833252 95.65319824 C-40.72653319 95.16265738 -39.89762406 94.30985571 -38.31030273 92.2746582 C-37.18100275 89.5278319 -36.17581447 86.82556713 -35.22827148 84.0168457 C-34.93731094 83.17708694 -34.6463504 82.33732819 -34.34657288 81.47212219 C-33.38870651 78.70074317 -32.44332032 75.92527194 -31.49780273 73.1496582 C-30.83483787 71.22531976 -30.17109108 69.30125053 -29.5065918 67.37744141 C-26.07786648 57.43327331 -22.69618413 47.47308145 -19.31420898 37.51293945 C-18.99586594 36.57659668 -18.67752289 35.64025391 -18.34953308 34.67553711 C-16.82346449 30.186554 -15.30203223 25.69614206 -13.79150391 21.2019043 C-13.24059599 19.57377209 -12.68957664 17.94567759 -12.13842773 16.31762695 C-11.89528336 15.58820389 -11.65213898 14.85878082 -11.40162659 14.10725403 C-6.61985434 0.03880784 -6.61985434 0.03880784 0 0 Z " fill="#FEFEFE" transform="translate(642.310302734375,351.725341796875)"/>
<path d="M0 0 C0.7361554 0.00247742 1.47231079 0.00495483 2.23077393 0.00750732 C3.00653275 0.00239639 3.78229156 -0.00271454 4.58155823 -0.00798035 C7.15359142 -0.02191445 9.7253578 -0.02091671 12.29742432 -0.01861572 C14.08099976 -0.02250064 15.86457428 -0.02683488 17.64814758 -0.03160095 C21.38991289 -0.03907143 25.13158385 -0.03876597 28.87335205 -0.0335083 C33.67328341 -0.02771337 38.47282895 -0.04464113 43.2726965 -0.06785297 C46.95724249 -0.08257053 50.64169515 -0.08346471 54.32626534 -0.08034325 C56.09613369 -0.08085748 57.86600714 -0.08611436 59.63584709 -0.09615517 C62.10915206 -0.10846382 64.58170022 -0.10176183 67.05499268 -0.09014893 C67.78912384 -0.09779266 68.523255 -0.1054364 69.27963257 -0.11331177 C74.26013814 -0.06150782 74.26013814 -0.06150782 76.30516434 1.50924397 C77.97145762 3.61575644 78.68492533 5.47322474 79.53065491 8.02313232 C80.02396301 9.48851692 80.02396301 9.48851692 80.52723694 10.98350525 C80.87783676 12.05530533 81.22843658 13.12710541 81.58966064 14.23138428 C81.96750702 15.36244095 82.34535339 16.49349762 82.73464966 17.65882874 C83.7729432 20.77294668 84.80313991 23.88960438 85.82981324 27.00756836 C86.92064244 30.31409948 88.02157837 33.61726314 89.12132263 36.9208374 C90.98077196 42.51117639 92.83366227 48.10365279 94.6819458 53.69769287 C97.23445106 61.42312389 99.79809948 69.14481783 102.36442685 76.86566639 C110.14699818 100.2835833 117.89556826 123.71212746 125.50054932 147.18841553 C131.66103677 166.20303824 137.97544104 185.16585221 144.30133057 204.12591553 C144.5612075 204.90486679 144.82108444 205.68381805 145.08883643 206.4863739 C149.12572899 218.58586912 153.16635289 230.68411769 157.20758057 242.78216553 C161.51160443 255.6669349 165.81440733 268.55211018 170.11383057 281.43841553 C170.37274928 282.21435476 170.631668 282.99029398 170.89843273 283.78974652 C177.74790755 304.31781612 184.54413683 324.86126483 191.21142578 345.4493866 C194.5440625 355.73732196 197.93184543 366.00484011 201.37945557 376.25482178 C201.59616913 376.89979488 201.81288269 377.54476799 202.03616333 378.20928574 C203.94589977 383.8929525 205.85838041 389.5756834 207.78082275 395.25506592 C208.65505295 397.8384562 209.52599977 400.42291014 210.39343262 403.0085907 C211.18760131 405.37545928 211.98633205 407.74080471 212.79077148 410.10420227 C216.488625 421.16100242 218.06154697 431.00991185 218.02325439 442.68914795 C218.02004745 444.74085466 218.04380378 446.79117817 218.06890869 448.8427124 C218.06955322 450.14144287 218.07019775 451.44017334 218.07086182 452.77825928 C218.07384277 453.9557373 218.07682373 455.13321533 218.07989502 456.34637451 C217.70758057 459.28216553 217.70758057 459.28216553 216.67308044 460.94039917 C213.62528852 463.02100203 210.45152898 462.70757573 206.88726807 462.68621826 C206.09185608 462.69308151 205.29644409 462.69994476 204.47692871 462.70701599 C201.84529823 462.72533125 199.21426115 462.72144025 196.58258057 462.71575928 C194.75559291 462.7203185 192.92860697 462.72562329 191.10162354 462.73164368 C187.27163731 462.74058382 183.44185951 462.73814105 179.61187744 462.72821045 C174.69863264 462.71671379 169.78610578 462.73693815 164.87295532 462.76612759 C161.10003067 462.78445363 157.32727926 462.78420444 153.55432129 462.77849007 C151.74258415 462.77833644 149.93083556 462.7844147 148.11914062 462.79678154 C145.58826335 462.81162401 143.05872772 462.80106568 140.52789307 462.78387451 C139.77663147 462.79354248 139.02536987 462.80321045 138.25134277 462.81317139 C133.18129185 462.74088485 133.18129185 462.74088485 130.7901001 460.42536926 C129.41255408 457.69806348 128.4078185 455.00225975 127.45758057 452.09466553 C127.25141113 451.46463623 127.0452417 450.83460693 126.83282471 450.18548584 C124.42093316 442.65284099 122.35416477 435.01417544 120.29449463 427.37908936 C118.6836213 421.47582797 116.82457754 415.76830229 114.68292236 410.0380249 C112.98393734 405.2374885 111.71346971 400.3230347 110.39508057 395.40716553 C107.98271992 386.58997757 105.33602687 377.90947238 102.36628723 369.26528931 C100.38273754 363.43612846 98.60428613 357.58041544 96.95367432 351.64935303 C94.74768251 343.82831764 92.44521629 336.0423196 90.05914307 328.27435303 C89.60043571 326.77944336 89.60043571 326.77944336 89.13246155 325.2543335 C87.87797298 321.17131523 86.62061554 317.0891964 85.35943604 313.00823975 C84.42236875 309.97304904 83.49041175 306.93632701 82.55914307 303.89935303 C82.27173248 302.97452118 81.9843219 302.04968933 81.6882019 301.09683228 C81.42727753 300.2438858 81.16635315 299.39093933 80.89752197 298.512146 C80.66691071 297.76496307 80.43629944 297.01778015 80.19869995 296.24795532 C79.70758057 294.28216553 79.70758057 294.28216553 79.70758057 291.28216553 C78.67219147 291.28882736 77.63680237 291.2954892 76.57003784 291.30235291 C66.82860664 291.3630786 57.08721366 291.40809697 47.34563637 291.43760204 C42.33697263 291.45328067 37.32846128 291.47455887 32.31988525 291.50848389 C27.48938874 291.54099921 22.6590391 291.55900198 17.82844162 291.56679726 C15.98237164 291.57235488 14.13630999 291.58320709 12.29030228 291.5993557 C9.71127994 291.62102621 7.13287019 291.62413686 4.55377197 291.6227417 C3.40039085 291.63892044 3.40039085 291.63892044 2.22370911 291.65542603 C0.09909058 291.64292908 0.09909058 291.64292908 -3.29241943 291.28216553 C-6.05110646 287.14413499 -5.21123957 283.93826719 -4.29241943 279.28216553 C-3.21562973 275.25003705 -1.92825782 271.30187713 -0.60491943 267.34466553 C-0.2455127 266.25307129 0.11389404 265.16147705 0.48419189 264.0368042 C1.21177617 261.82914628 1.9424501 259.62250405 2.67633057 257.41693115 C3.61195952 254.57283179 4.51219029 251.72111217 5.39508057 248.86029053 C5.8950754 247.27174723 6.39507504 245.68320546 6.89508057 244.09466553 C7.10801758 243.38382813 7.32095459 242.67299072 7.54034424 241.94061279 C9.5540877 235.67925967 12.59918131 231.1464751 18.39117432 227.92279053 C25.73510405 224.98095511 34.00628172 225.86679575 41.77008057 226.03216553 C43.41524111 226.05226206 45.06042536 226.07050725 46.70562744 226.08685303 C50.70687126 226.13059794 54.70696041 226.19944893 58.70758057 226.28216553 C58.39905151 225.28140991 58.39905151 225.28140991 58.08428955 224.26043701 C54.44100685 212.43971689 50.8028481 200.61758969 47.20758057 188.78216553 C40.39692565 166.04563833 40.39692565 166.04563833 33.08258057 143.46966553 C30.87972805 136.97088469 29.00238493 130.40426784 27.144104 123.8012085 C24.18466055 113.33520187 20.94981307 102.95596529 17.72662354 92.56878662 C16.10866383 87.35053709 14.50153695 82.12896588 12.89508057 76.90716553 C12.57442627 75.8652002 12.25377197 74.82323486 11.92340088 73.74969482 C8.48887121 62.58248618 5.06121325 51.41308239 1.66046143 40.23553467 C1.19962581 38.72112413 0.73877003 37.20671973 0.27789307 35.69232178 C0.05531326 34.96078384 -0.16726654 34.22924591 -0.39659119 33.47554016 C-1.69545091 29.21474054 -3.01802618 24.96237491 -4.36273193 20.71575928 C-4.65325439 19.78618408 -4.94377686 18.85660889 -5.24310303 17.89886475 C-5.75490268 16.26341942 -6.27527727 14.63061777 -6.80657959 13.00140381 C-8.01803836 9.09361736 -8.70602718 6.19843597 -7.29241943 2.28216553 C-4.81558201 -0.1946719 -3.38095821 0.03566909 0 0 Z " fill="#FEFEFE" transform="translate(313.29241943359375,321.71783447265625)"/>
<path d="M0 0 C0.71592316 -0.00540298 1.43184631 -0.01080597 2.16946411 -0.01637268 C4.53136791 -0.02886016 6.89205271 -0.01237026 9.25390625 0.00561523 C10.89770573 0.00546024 12.54150558 0.00397128 14.18530273 0.00120544 C17.62858252 -0.00017855 21.07144576 0.01237916 24.51464844 0.03515625 C28.92662048 0.06354116 33.33790045 0.06080371 37.74992371 0.04806614 C41.14373681 0.04110861 44.53739016 0.04889903 47.93118286 0.06132317 C49.55786527 0.06583697 51.18456483 0.06617508 52.81124878 0.06225777 C55.08546047 0.05934475 57.35872105 0.0758555 59.6328125 0.09765625 C60.92646729 0.10305923 62.22012207 0.10846222 63.55297852 0.11402893 C67.13003836 0.53896702 68.30138953 0.99618279 70.81640625 3.50170898 C71.31665224 5.98682213 71.31665224 5.98682213 71.3169775 9.01620483 C71.32679179 10.16984842 71.33660608 11.32349201 71.34671777 12.5120945 C71.33711277 13.78532255 71.32750776 15.05855061 71.31761169 16.37036133 C71.32150236 17.73200245 71.32714091 19.09363953 71.33438259 20.45526695 C71.34918934 24.20536003 71.33892547 27.95503545 71.32464588 31.70511532 C71.31356938 35.74607891 71.32546762 39.78698231 71.33448792 43.82794189 C71.34844515 51.74747919 71.34084595 59.6668574 71.32581233 67.58638716 C71.30898123 76.80242014 71.31215882 86.01841318 71.31590641 95.23445678 C71.32178954 111.67448453 71.30759569 128.11443577 71.28295898 144.55444336 C71.25903688 160.51931629 71.25195414 176.48408698 71.26245117 192.44897461 C71.27385192 209.81952548 71.27580089 227.19002902 71.26135308 244.5605793 C71.25982718 246.41166305 71.25830683 248.26274681 71.25679207 250.11383057 C71.25603425 251.02467986 71.25527644 251.93552914 71.25449566 252.87397993 C71.2497463 259.30318044 71.25160888 265.73235986 71.25585747 272.16156006 C71.26077634 279.99300489 71.25483472 287.82435292 71.23496317 295.65577555 C71.2250689 299.65409071 71.22000892 303.65225824 71.22785568 307.65058136 C71.23488514 311.30716698 71.22817266 314.96345403 71.21025205 318.62000012 C71.20425768 320.57710285 71.21306047 322.53423337 71.22229856 324.49132347 C71.20963865 326.22178885 71.20963865 326.22178885 71.19672298 327.98721313 C71.19569385 328.98690943 71.19466473 329.98660572 71.19360441 331.01659584 C70.81640625 333.50170898 70.81640625 333.50170898 69.49425083 335.32255554 C66.76012401 337.24404165 63.76741151 336.91802626 60.546875 336.88989258 C59.80998444 336.89514954 59.07309387 336.90040649 58.31387329 336.90582275 C55.87700227 336.91903133 53.44078397 336.91028201 51.00390625 336.90014648 C49.31144078 336.90216698 47.61897616 336.90507822 45.92651367 336.90884399 C42.37898471 336.9132685 38.83168232 336.90683234 35.28417969 336.89282227 C30.73422716 336.87573019 26.18480548 336.88557071 21.63487244 336.90353966 C18.13989249 336.91437416 14.64503865 336.91093272 11.15005493 336.90315628 C9.47229957 336.90115334 7.79453281 336.90361683 6.11679077 336.91059494 C3.772864 336.9182041 1.42979993 336.90661363 -0.9140625 336.88989258 C-1.60921967 336.89596527 -2.30437683 336.90203796 -3.02059937 336.90829468 C-7.69352175 336.84645724 -7.69352175 336.84645724 -9.86143833 335.32140487 C-11.68749489 332.80818474 -11.56071424 331.09933896 -11.56391048 328.00562382 C-11.57235043 326.85608032 -11.58079037 325.70653683 -11.58948606 324.52215868 C-11.58347602 323.2535037 -11.57746597 321.98484871 -11.5712738 320.67774963 C-11.57544436 319.32094742 -11.58092035 317.9641487 -11.58759362 316.60735649 C-11.60210366 312.87067015 -11.59778631 309.13420333 -11.5904268 305.39750469 C-11.58571109 301.3708371 -11.59819078 297.34421811 -11.60844421 293.31756592 C-11.62566906 285.42580078 -11.62646461 277.53411514 -11.62123131 269.64233608 C-11.6171952 263.22986619 -11.6186265 256.81741985 -11.62397957 250.4049511 C-11.62472799 249.49341861 -11.62547641 248.58188612 -11.62624751 247.64273144 C-11.62777894 245.79114596 -11.62931729 243.93956049 -11.63086248 242.08797502 C-11.64460087 224.71127484 -11.63914045 207.33461964 -11.62767727 189.95792048 C-11.61774357 174.04988038 -11.63068554 158.14195657 -11.65461146 142.23393441 C-11.67897569 125.91190888 -11.68861693 109.58993757 -11.68195873 93.26789421 C-11.67846054 84.09935909 -11.68073805 74.93091345 -11.69820976 65.76239204 C-11.71289835 57.95731404 -11.71361117 50.15238849 -11.69613885 42.34731359 C-11.68759872 38.36300241 -11.68555219 34.37896396 -11.70079041 30.39466667 C-11.71455862 26.7496813 -11.70997706 23.10520431 -11.69055117 19.46024894 C-11.68496873 17.51182597 -11.69912811 15.56337762 -11.71390527 13.61500269 C-11.70409098 12.46285145 -11.69427669 11.31070021 -11.684165 10.12363529 C-11.68405766 9.12735648 -11.68395033 8.13107767 -11.68383974 7.1046086 C-10.42359342 0.54724537 -5.90093826 0.00075797 0 0 Z " fill="#FDFDFD" transform="translate(852.18359375,447.498291015625)"/>
<path d="M0 0 C2.64045519 8.23605736 5.26663926 16.47648964 7.87484074 24.72281837 C9.0864508 28.55200987 10.30287354 32.3795292 11.53051758 36.20361328 C12.71563539 39.89584729 13.88781806 43.59196197 15.05123711 47.2910881 C15.4967909 48.69989408 15.94694434 50.10725407 16.4018116 51.5130806 C17.03940189 53.48634197 17.66026722 55.46416689 18.27758789 57.44384766 C18.81386559 59.12929184 18.81386559 59.12929184 19.36097717 60.8487854 C20.5453085 66.68908094 18.56168875 71.74206885 16.68676758 77.24853516 C16.45242004 77.94880325 16.21807251 78.64907135 15.97662354 79.37055969 C15.4690274 80.88530928 14.95933481 82.39935764 14.44776344 83.91276932 C13.63119018 86.3285309 12.82015636 88.7460923 12.01042175 91.16415405 C10.57471818 95.44849651 9.13416295 99.73118916 7.6920166 104.0133667 C5.12891857 111.62422039 2.57076403 119.23672309 0.01953125 126.8515625 C-0.25387148 127.66711042 -0.52727421 128.48265835 -0.80896187 129.32291985 C-4.03490528 138.95657092 -7.17283257 148.598274 -10.01574707 158.35325623 C-12.7626716 167.73394659 -15.99445115 176.95134515 -19.1875 186.1875 C-20.11569596 188.88477393 -21.04280107 191.58242105 -21.96980286 194.28010559 C-22.53874051 195.93447784 -23.1085609 197.58854693 -23.67948914 199.24223328 C-25.48803982 204.48421123 -27.24622582 209.73867747 -29 215 C-57.38 215 -85.76 215 -115 215 C-113.67257746 209.02659856 -112.28262531 203.42361292 -110.33300781 197.67431641 C-110.07235031 196.89351212 -109.81169281 196.11270782 -109.5431366 195.3082428 C-108.68398086 192.73792799 -107.81851029 190.16978588 -106.953125 187.6015625 C-106.33888895 185.76702555 -105.72510894 183.93233585 -105.11175537 182.09750366 C-103.49018051 177.24987538 -101.86350749 172.40397456 -100.2354126 167.55853271 C-92.52640638 144.60913873 -84.82783283 121.65594444 -77.30657196 98.644207 C-76.72017248 96.85073851 -76.13272631 95.0576118 -75.54407501 93.26488113 C-72.24581545 83.2127266 -69.09935535 73.13627876 -66.22704315 62.95327377 C-59.09919602 37.78002865 -59.09919602 37.78002865 -47.0534668 30.69750977 C-45.49436748 29.86029079 -43.92375083 29.04416158 -42.34228516 28.25 C-38.298206 26.09180892 -34.72639889 23.30146475 -31.0625 20.5625 C-29.58476072 19.49541634 -28.10558008 18.43032603 -26.625 17.3671875 C-23.30920505 14.96624271 -20.02386035 12.52811148 -16.75 10.0703125 C-15.88366943 9.42247803 -15.01733887 8.77464355 -14.12475586 8.10717773 C-12.44648428 6.84979332 -10.77262831 5.5864885 -9.10375977 4.31665039 C-8.34893311 3.75196045 -7.59410645 3.18727051 -6.81640625 2.60546875 C-6.15068604 2.10168701 -5.48496582 1.59790527 -4.79907227 1.07885742 C-3 0 -3 0 0 0 Z " fill="#00B59A" transform="translate(240,568)"/>
<path d="M0 0 C1.94326172 0.01933594 1.94326172 0.01933594 3.92578125 0.0390625 C5.28907324 0.07248134 6.65235449 0.10634109 8.015625 0.140625 C9.39450564 0.16069793 10.77341412 0.17894733 12.15234375 0.1953125 C15.52414244 0.24247052 18.89453187 0.30827962 22.265625 0.390625 C21.605625 1.380625 20.945625 2.370625 20.265625 3.390625 C20.64412859 8.32121055 21.86869435 12.86719601 23.2890625 17.58984375 C23.50323822 18.30476486 23.71741394 19.01968597 23.93807983 19.75627136 C27.87988383 32.83985564 31.98007916 45.87676106 36.05078125 58.9206543 C37.18004621 62.54124044 38.30514071 66.16310232 39.4296875 69.78515625 C39.77037262 70.87294876 40.11105774 71.96074127 40.46206665 73.08149719 C40.78605438 74.12686142 41.11004211 75.17222565 41.44384766 76.24926758 C41.72410797 77.14841385 42.00436829 78.04756012 42.29312134 78.97395325 C42.61404755 80.10145493 42.93497375 81.2289566 43.265625 82.390625 C43.70169146 83.71091784 43.70169146 83.71091784 44.14656734 85.05788326 C46.4861641 92.83954869 46.12594159 97.82215911 43.42504883 105.40405273 C43.08732452 106.43165207 42.74960022 107.4592514 42.40164185 108.51799011 C41.2882335 111.88079667 40.13115575 115.22670779 38.97265625 118.57421875 C38.18574852 120.92073135 37.40158541 123.26816599 36.62004089 125.61647034 C34.56231551 131.77420705 32.46693992 137.91847574 30.36352539 144.06072998 C28.22848136 150.31835548 26.13086836 156.588494 24.02929688 162.85742188 C20.95616931 172.00573169 17.87001756 181.14944273 14.75317383 190.28295898 C14.26597618 191.71448303 14.26597618 191.71448303 13.76893616 193.17492676 C9.48775014 205.6875957 9.48775014 205.6875957 5.765625 208.265625 C5.052854 208.76892334 4.34008301 209.27222168 3.60571289 209.79077148 C2.44736938 210.58269897 2.44736938 210.58269897 1.265625 211.390625 C-0.38170492 212.54790027 -2.02883491 213.70546016 -3.67578125 214.86328125 C-4.51898926 215.44996582 -5.36219727 216.03665039 -6.23095703 216.64111328 C-10.07533034 219.32775061 -13.87352167 222.076997 -17.671875 224.828125 C-18.39745605 225.35172607 -19.12303711 225.87532715 -19.87060547 226.41479492 C-28.53881672 232.67601439 -37.13775038 239.03165543 -45.734375 245.390625 C-48.11902662 243.00597338 -48.62526089 241.22005507 -49.6875 238.02734375 C-50.05649414 236.92302002 -50.42548828 235.81869629 -50.80566406 234.6809082 C-51.19463867 233.49198975 -51.58361328 232.30307129 -51.984375 231.078125 C-52.38624023 229.8614917 -52.78810547 228.6448584 -53.20214844 227.39135742 C-55.88549833 219.19145693 -58.40275964 210.95978811 -60.68847656 202.64038086 C-61.78114666 198.66798882 -62.92390003 194.74636856 -64.28125 190.85546875 C-64.64814941 189.78365356 -64.64814941 189.78365356 -65.02246094 188.69018555 C-65.67980833 186.79771939 -66.36223358 184.9140139 -67.046875 183.03125 C-68.59864008 174.81394858 -64.4616628 166.15966926 -61.8581543 158.43725586 C-61.46909409 157.27124344 -61.08003387 156.10523102 -60.67918396 154.90388489 C-59.83550055 152.37754229 -58.99020953 149.85180983 -58.14203453 147.32697868 C-56.78535868 143.28839479 -55.43514266 139.24766829 -54.08564758 135.2066803 C-51.93368146 128.76525962 -49.77740433 122.32529158 -47.61931211 115.88592106 C-43.80764881 104.51225152 -40.00268725 93.13634012 -36.20001614 81.75966132 C-34.81920159 77.62910886 -33.43644726 73.49921181 -32.05233157 69.36976445 C-27.83567723 56.78654014 -23.6419776 44.19835192 -19.61962891 31.55126953 C-19.31327546 30.59148602 -19.00692202 29.63170252 -18.69128513 28.64283466 C-17.31240769 24.31951176 -15.94561157 19.99319846 -14.60392761 15.65818787 C-14.13848427 14.18808511 -13.67263736 12.71811005 -13.20629883 11.24829102 C-12.82065262 10.00676773 -12.43500641 8.76524445 -12.03767395 7.48609924 C-9.39464293 1.20861821 -6.64956559 -0.11665905 0 0 Z " fill="#00A79B" transform="translate(285.734375,321.609375)"/>
<path d="M0 0 C2.02184799 -0.00438156 4.04152496 -0.0407508 6.06298828 -0.07861328 C7.34044922 -0.08248047 8.61791016 -0.08634766 9.93408203 -0.09033203 C11.10261719 -0.0985498 12.27115234 -0.10676758 13.47509766 -0.11523438 C17.30937575 0.49498743 18.22696357 1.26699004 20.52783203 4.37060547 C20.91731681 7.23634876 21.06523188 9.71614373 21.02954102 12.57983398 C21.03764549 13.81706207 21.03764549 13.81706207 21.0459137 15.07928467 C21.05841149 17.80305974 21.04190481 20.52578007 21.02392578 23.24951172 C21.02408073 25.14232946 21.02556903 27.03514753 21.02833557 28.92796326 C21.02971998 32.89328042 21.01715328 36.85823607 20.99438477 40.82348633 C20.96598063 45.9103722 20.96874215 50.9966582 20.98147488 56.0835886 C20.98842358 59.9911971 20.98065236 63.8986665 20.96821785 67.80625725 C20.96369684 69.68217371 20.9633722 71.55810507 20.96728325 73.4340229 C20.97018805 76.05325157 20.95372468 78.6716479 20.93188477 81.29077148 C20.93638641 82.06851425 20.94088806 82.84625702 20.94552612 83.64756775 C20.87272681 88.89215308 20.87272681 88.89215308 19.12757874 91.31309509 C15.5603291 93.6712206 12.49231162 93.51197482 8.34008789 93.5 C7.60013077 93.50175232 6.86017365 93.50350464 6.09779358 93.50531006 C3.64606396 93.50972004 1.19440616 93.50679388 -1.25732422 93.50341797 C-2.95600905 93.50409118 -4.65469379 93.50506135 -6.3533783 93.50631714 C-9.91520097 93.50779289 -13.47699859 93.5056432 -17.03881836 93.50097656 C-21.61461661 93.49527501 -26.19035627 93.49856174 -30.76615238 93.50454903 C-34.27388454 93.50815424 -37.78160269 93.50701632 -41.28933525 93.50442123 C-42.97711634 93.50375208 -44.66489868 93.50457999 -46.3526783 93.50690079 C-48.70642617 93.50942713 -51.0600777 93.50558721 -53.41381836 93.5 C-54.4696965 93.50303635 -54.4696965 93.50303635 -55.54690552 93.50613403 C-60.35790433 93.48486911 -60.35790433 93.48486911 -61.47216797 92.37060547 C-63.20232587 80.64705555 -64.11166215 67.68918041 -57.27416992 57.53833008 C-54.78197146 54.28101555 -52.20029613 51.11189803 -49.56005859 47.97363281 C-45.7546559 43.22933867 -42.53415767 38.0901239 -39.22216797 32.99560547 C-17.36944609 -0.00422511 -17.36944609 -0.00422511 0 0 Z " fill="#FCFCFC" transform="translate(902.47216796875,311.62939453125)"/>
</svg>
