<svg version="1.1" id="Layer_1" xmlns="http://www.w3.org/2000/svg" xmlns:xlink="http://www.w3.org/1999/xlink" x="0px" y="0px"
	 width="100%" viewBox="0 0 224 224" enable-background="new 0 0 224 224" xml:space="preserve">
<path fill="#FFFFFE" opacity="1.000000" stroke="none" 
	d="
M97.000000,225.000000 
	C65.016472,225.000000 33.032951,225.000000 1.024714,225.000000 
	C1.024714,150.388260 1.024714,75.776505 1.024714,1.082378 
	C75.573219,1.082378 150.146561,1.082378 224.859955,1.082378 
	C224.859955,75.666496 224.859955,150.333206 224.859955,225.000000 
	C197.909561,225.000000 170.923431,225.000000 143.418518,224.662628 
	C142.249222,223.174988 141.598709,222.024689 141.206207,220.619781 
	C149.579071,218.448349 155.477249,213.886032 160.588013,207.113174 
	C165.705551,200.331375 168.398209,193.209900 169.374847,184.982147 
	C173.691254,182.768539 172.287109,179.847443 170.881638,176.480438 
	C170.217789,168.461548 169.999390,160.805954 168.695663,153.339905 
	C167.848007,148.485550 166.111069,143.487137 163.560852,139.289368 
	C157.537796,129.375183 148.428955,123.375847 136.909286,120.651031 
	C135.185806,119.831764 133.549515,119.074951 131.904602,119.055710 
	C122.172348,118.941917 112.437881,119.032074 102.704742,118.966568 
	C101.104050,118.955795 99.236122,118.960670 97.958328,118.187317 
	C94.282059,115.962357 92.867393,117.712463 91.684036,121.194817 
	C90.895149,123.254265 90.423386,125.124367 89.678055,127.299896 
	C89.282555,130.676666 88.972595,133.758316 89.139854,136.813812 
	C89.199028,137.894669 90.422386,138.911774 91.199677,140.115189 
	C91.285118,140.272385 91.226685,140.625412 91.177948,141.015625 
	C91.995338,142.215775 92.849129,143.715195 93.729492,143.730957 
	C104.753860,143.928421 115.782166,143.943375 126.809166,143.908615 
	C128.213608,143.904190 129.616348,143.352676 131.234497,142.997620 
	C131.751007,142.829880 131.943192,142.619141 132.369446,142.298859 
	C134.120209,142.926743 135.527191,143.564148 137.055939,144.434204 
	C137.504562,144.747452 137.831406,144.828079 138.376877,144.933044 
	C138.595505,144.957382 138.930420,145.242645 138.923065,145.599106 
	C139.450150,146.957047 140.045425,147.931274 140.508362,148.964767 
	C142.373245,153.128006 145.080002,157.160965 145.813843,161.521729 
	C146.740265,167.026901 146.842941,172.942902 145.891632,178.437668 
	C143.605759,191.640778 143.817612,195.914124 129.614594,198.090698 
	C120.504913,199.486725 111.074593,198.904831 101.786041,198.987213 
	C92.362595,199.070801 84.987183,191.614395 84.971405,182.121063 
	C84.931274,157.981567 84.748627,133.838486 85.146561,109.705490 
	C85.220894,105.197746 87.415390,100.598686 89.211868,96.283394 
	C90.807877,92.449646 93.209419,88.951248 95.593826,85.208221 
	C100.025963,82.156273 104.119667,79.200935 108.584831,76.179276 
	C112.338600,75.463348 115.896950,75.075775 116.890488,70.891785 
	C116.931252,70.973694 116.810425,70.836281 117.219345,70.911156 
	C121.473793,69.121376 125.491226,67.532211 129.096420,65.282448 
	C131.066833,64.052826 132.339752,61.705467 134.092346,59.601486 
	C135.348328,58.434906 136.439194,57.529007 137.913513,56.726463 
	C141.367950,52.827423 145.389267,49.233734 147.321182,44.741482 
	C152.010239,33.838112 151.272934,22.056425 150.691208,10.495965 
	C150.599136,8.666625 148.163025,5.458536 146.864334,5.485366 
	C143.767609,5.549342 140.659515,7.129164 141.504730,11.472829 
	C141.453064,11.474120 141.407898,11.567101 141.036560,11.397455 
	C139.237808,11.854680 137.715057,12.326916 136.400558,13.137027 
	C132.242050,15.699880 128.098145,18.297907 124.086273,21.080807 
	C122.750778,22.007198 121.831024,23.532928 120.340485,24.841148 
	C116.000366,26.397490 110.473129,24.953505 108.487473,30.878378 
	C107.044586,31.570927 105.953621,32.205238 104.516785,32.894676 
	C103.046051,33.901745 101.921196,34.853691 100.436569,35.863892 
	C98.455353,36.592800 96.550598,36.933025 95.284782,38.018414 
	C93.730759,39.350925 92.710594,41.306042 91.500008,43.197044 
	C91.540375,43.402073 91.714760,43.781887 91.755196,43.875702 
	C91.795631,43.969517 91.764229,43.767628 91.450928,43.832294 
	C90.278931,44.752491 89.420227,45.608021 88.564133,46.514069 
	C88.566734,46.564590 88.477821,46.516319 88.199501,46.531578 
	C87.271378,46.924587 86.621574,47.302338 85.958771,47.384857 
	C85.322159,46.707108 84.698547,46.324589 84.019867,45.534485 
	C83.785828,44.609241 83.606842,44.091583 83.519203,43.266117 
	C83.834358,42.357094 84.058167,41.755875 84.615326,41.042999 
	C85.322685,38.284477 85.696693,35.637615 86.054382,32.660568 
	C86.042992,31.889757 86.047920,31.449133 86.318787,30.774240 
	C86.703674,29.364071 86.822609,28.188168 87.218895,26.799431 
	C87.000916,25.388802 86.505592,24.191006 85.735001,22.992294 
	C85.277504,23.013102 85.095284,23.034822 84.845779,22.857639 
	C84.778503,22.658733 84.712372,22.244024 84.827362,21.887489 
	C84.928558,21.036657 84.914764,20.542358 84.923050,19.666590 
	C83.609596,16.869486 82.274055,14.453856 80.731277,11.848730 
	C80.012260,11.445055 79.500465,11.230875 78.816353,10.751039 
	C77.424034,11.350163 75.870712,11.976722 75.049164,13.126261 
	C72.936760,16.082037 70.716652,19.087568 69.319962,22.402058 
	C66.306061,29.554333 62.696125,36.722755 61.379139,44.243393 
	C60.194778,51.006702 61.586216,58.263424 62.208172,65.269951 
	C62.357494,66.952110 63.960049,68.505264 65.082840,70.354378 
	C65.835503,70.767914 66.399597,70.944817 66.971771,71.511032 
	C67.004105,72.947189 67.028358,73.994041 66.883667,75.369759 
	C66.116196,78.122650 65.517670,80.546677 64.579620,83.040710 
	C63.849873,84.102791 63.459648,85.094864 63.066124,86.527008 
	C62.959263,89.315094 62.855694,91.663101 62.448265,94.067245 
	C62.125797,95.088776 62.107185,96.054176 62.074615,97.381226 
	C62.354671,98.831398 62.648682,99.919922 62.950981,101.476471 
	C62.908543,129.636017 62.857819,157.327530 62.559029,185.242950 
	C62.018040,191.316269 61.446205,197.227570 66.102295,202.322662 
	C66.809006,203.780563 67.395851,204.920685 68.007904,206.410675 
	C68.723099,207.478867 69.413078,208.197159 70.059723,208.961609 
	C70.016380,209.007751 70.091599,208.908081 70.072495,209.294189 
	C71.159210,210.520569 72.265022,211.360840 73.482033,212.229218 
	C73.593224,212.257324 73.762779,212.411804 73.589218,212.771515 
	C75.246758,215.630112 76.681816,219.745392 78.986809,220.310150 
	C84.781418,221.729904 90.968948,221.546005 96.998917,222.379456 
	C96.999252,223.502548 96.999626,224.251266 97.000000,225.000000 
M123.165344,158.803741 
	C117.854927,158.832870 112.513489,158.550354 107.252266,159.073883 
	C105.592354,159.239044 102.953804,161.450317 102.815674,162.918274 
	C102.289474,168.510361 102.469376,174.185654 102.652847,179.821167 
	C102.754578,182.945953 104.687119,184.555405 107.899422,184.535858 
	C112.877274,184.505569 117.855568,184.547607 122.833405,184.515839 
	C126.759865,184.490753 128.531998,182.364456 128.513367,178.545029 
	C128.489059,173.566727 128.451279,168.588150 128.479538,163.610046 
	C128.496674,160.594757 127.185501,158.911011 123.165344,158.803741 
z"/>
<path fill="#FDFEF7" opacity="1.000000" stroke="none" 
	d="
M97.468658,225.000000 
	C96.999626,224.251266 96.999252,223.502548 97.467575,222.367935 
	C112.273582,221.612839 126.610886,221.243622 140.948196,220.874405 
	C141.598709,222.024689 142.249222,223.174988 142.949860,224.662628 
	C127.979103,225.000000 112.958214,225.000000 97.468658,225.000000 
z"/>
<path fill="#83BA08" opacity="1.000000" stroke="none" 
	d="
M138.930420,145.242645 
	C138.930420,145.242645 138.595505,144.957382 138.258179,144.696594 
	C137.591965,144.357742 137.263062,144.279648 136.934174,144.201569 
	C135.527191,143.564148 134.120209,142.926743 132.135864,142.141235 
	C131.371460,142.006363 131.184433,142.019577 130.600647,141.899933 
	C126.931129,141.528259 123.661491,141.149506 120.385071,141.076950 
	C110.667038,140.861725 100.946342,140.767151 91.226685,140.625427 
	C91.226685,140.625412 91.285118,140.272385 91.361290,139.738770 
	C91.384933,135.138474 91.332413,131.071777 91.456306,126.599442 
	C91.556885,123.230736 93.342873,122.747551 95.839233,122.771423 
	C107.802841,122.885826 119.816833,122.233543 131.719330,123.115990 
	C147.243683,124.266968 158.423203,132.315598 164.132599,147.182114 
	C169.441193,161.005051 169.297791,175.220016 166.201385,189.357712 
	C164.342514,197.845062 160.680511,205.742416 152.851624,211.094482 
	C151.342651,212.069733 150.218079,213.090408 149.074158,214.097382 
	C149.054825,214.083694 149.083252,214.096054 148.677551,214.051422 
	C144.498367,215.635941 140.724884,217.265076 136.642090,219.001053 
	C135.897919,219.102905 135.463089,219.097916 134.859970,218.830078 
	C133.760574,218.908279 132.829468,219.249313 131.452637,219.718567 
	C118.363518,219.770706 105.720100,219.694611 92.939621,219.271622 
	C91.033478,218.749222 89.264397,218.573685 87.349426,218.452179 
	C87.203545,218.506195 86.931435,218.355316 86.765457,218.009094 
	C85.624153,217.508667 84.648819,217.354477 83.498062,217.194641 
	C83.322624,217.188965 83.011795,217.025787 82.962456,216.680771 
	C82.638466,215.936523 82.455055,215.373901 82.075737,215.162125 
	C73.797813,210.540085 67.678879,204.375275 66.755478,194.319183 
	C66.710571,193.830032 65.565659,193.441864 64.859665,192.832458 
	C64.786346,192.658218 64.758263,192.281204 64.848717,191.802551 
	C64.951889,190.159653 64.965126,188.995422 64.977249,187.831177 
	C65.300888,156.756943 65.633148,125.682770 65.903061,94.608063 
	C65.910660,93.732925 65.252724,92.852005 64.898407,91.606964 
	C64.978195,90.513100 65.064697,89.786057 65.500732,88.959000 
	C66.886383,84.230141 67.922508,79.601318 68.961494,74.621140 
	C69.433899,73.207344 69.903450,72.144905 70.707306,71.004494 
	C71.632278,69.523811 72.222946,68.121094 72.760986,66.486954 
	C72.708344,66.255539 72.518753,65.820374 72.681061,65.633362 
	C73.019913,65.156464 73.258331,64.932381 73.892220,64.707779 
	C74.356270,64.234543 74.486694,63.827621 74.647964,63.133278 
	C75.084946,62.214745 75.491089,61.583637 76.266251,60.920799 
	C76.992508,60.092720 77.349747,59.296375 77.743988,58.246376 
	C78.110077,57.622234 78.439163,57.251743 79.115547,56.889816 
	C80.009460,56.016479 80.556076,55.134571 81.145111,53.958187 
	C81.190887,53.465393 81.194244,53.267075 81.407394,52.911362 
	C82.067902,52.495071 82.518623,52.236176 83.116318,52.154812 
	C83.498650,51.860992 83.734016,51.389641 84.063782,50.642864 
	C84.736954,49.897831 85.315727,49.428219 86.285103,48.976147 
	C87.276405,48.167896 87.877113,47.342106 88.477821,46.516319 
	C88.477821,46.516319 88.566734,46.564590 88.928848,46.671379 
	C90.115387,45.774658 90.939804,44.771141 91.764229,43.767624 
	C91.764229,43.767628 91.795631,43.969517 92.143623,43.951920 
	C93.611046,42.897377 94.730476,41.860428 95.888344,40.836578 
	C95.926781,40.849682 95.858284,40.840805 96.235535,40.900349 
	C100.389076,38.822590 104.252831,36.822327 107.905563,34.491383 
	C109.791649,33.287804 111.302879,31.496790 112.990746,29.986595 
	C112.998016,30.001999 112.971596,29.979107 113.272018,29.996063 
	C114.054512,29.718952 114.536583,29.424887 115.263336,28.931797 
	C116.462593,28.322958 117.417168,27.913139 118.762985,27.632282 
	C121.709320,26.034332 124.264420,24.307425 126.997284,22.406815 
	C127.640259,22.077724 128.105469,21.922337 128.879807,21.761665 
	C129.458771,21.465576 129.728592,21.174772 130.116119,20.798479 
	C130.233826,20.712990 130.523941,20.735287 130.842422,20.722672 
	C131.400650,20.384132 131.640411,20.058208 132.126129,19.502754 
	C135.384018,16.704514 138.395966,14.135806 141.407898,11.567099 
	C141.407898,11.567101 141.453064,11.474120 141.754395,11.454317 
	C142.370468,11.313393 142.685211,11.192270 143.192993,11.296999 
	C143.940735,10.711443 144.495407,9.900036 145.229706,8.909849 
	C145.558701,8.652131 145.708084,8.573192 145.929871,8.896009 
	C146.950409,11.874625 147.898514,14.451487 148.931488,17.477211 
	C148.949356,21.268318 148.882355,24.610563 148.521881,28.144398 
	C148.166290,30.232759 148.104172,32.129532 148.039932,34.346428 
	C147.925537,35.077053 147.813248,35.487553 147.364746,36.008392 
	C146.468307,38.219238 145.908096,40.319744 145.335464,42.724861 
	C145.018005,43.769676 144.712936,44.509884 144.090210,45.306984 
	C143.665054,45.751041 143.557541,46.138210 143.369659,46.846573 
	C142.221466,48.791317 141.153641,50.414867 139.727386,52.051147 
	C135.013367,56.191113 130.657730,60.318348 126.147400,64.608086 
	C125.746429,64.957802 125.468857,65.059669 124.831009,65.059555 
	C124.037743,65.429726 123.573448,65.816536 123.074112,66.136307 
	C123.039062,66.069252 123.155067,66.166389 122.783554,66.134048 
	C120.587471,67.353058 118.762909,68.604416 116.871857,70.096397 
	C116.805382,70.337021 116.810425,70.836281 116.810425,70.836281 
	C116.810425,70.836281 116.931252,70.973694 116.581299,70.868607 
	C115.824677,70.837006 115.418015,70.910492 114.800583,70.731674 
	C112.239731,70.529549 109.895302,70.587387 109.773560,74.129227 
	C109.070549,74.565956 108.542313,74.772606 107.800491,74.723854 
	C106.812904,75.069824 106.038910,75.671204 105.255463,76.209892 
	C105.245995,76.147202 105.207909,76.268150 104.809402,76.183701 
	C99.850044,76.628006 94.469994,81.199158 93.999100,84.968033 
	C94.017914,84.974457 94.019684,85.014191 93.696617,85.038681 
	C92.904488,85.696022 92.435425,86.328880 91.983032,86.980911 
	C91.999695,87.000076 91.962288,86.965424 91.593887,86.966621 
	C87.585175,88.186714 86.229149,90.860489 86.344696,94.797844 
	C85.931511,95.753876 85.590637,96.429634 84.915771,97.241318 
	C84.028297,99.917847 83.474808,102.458450 82.918930,105.389648 
	C82.811562,106.812401 82.706566,107.844559 82.250809,109.038025 
	C81.613091,110.110214 81.077209,111.020660 81.075531,111.932083 
	C81.032516,135.230286 80.946129,158.529602 81.181290,181.825546 
	C81.208878,184.558975 83.060371,187.274017 84.147972,190.156494 
	C84.229607,190.315414 84.266273,190.670853 84.193390,191.010452 
	C84.482803,191.866623 84.845093,192.383194 85.454697,193.120026 
	C88.370651,198.114578 92.806068,200.677979 97.897835,200.899826 
	C108.477760,201.360779 119.121544,201.597778 129.679657,200.953247 
	C139.388840,200.360535 145.338104,194.367233 147.471939,184.887985 
	C149.734726,174.835800 149.891418,164.657883 146.477158,154.932022 
	C145.191757,151.270386 141.516296,148.447754 138.930420,145.242645 
z"/>
<path fill="#A9C511" opacity="1.000000" stroke="none" 
	d="
M123.617859,158.824066 
	C127.185501,158.911011 128.496674,160.594757 128.479538,163.610046 
	C128.451279,168.588150 128.489059,173.566727 128.513367,178.545029 
	C128.531998,182.364456 126.759865,184.490753 122.833405,184.515839 
	C117.855568,184.547607 112.877274,184.505569 107.899422,184.535858 
	C104.687119,184.555405 102.754578,182.945953 102.652847,179.821167 
	C102.469376,174.185654 102.289474,168.510361 102.815674,162.918274 
	C102.953804,161.450317 105.592354,159.239044 107.252266,159.073883 
	C112.513489,158.550354 117.854927,158.832870 123.617859,158.824066 
z"/>
<path fill="#E9F6C3" opacity="1.000000" stroke="none" 
	d="
M93.076675,219.618500 
	C105.720100,219.694611 118.363518,219.770706 131.773483,219.840515 
	C133.369431,219.587112 134.198837,219.340027 135.028244,219.092926 
	C135.463089,219.097916 135.897919,219.102905 137.028229,219.045563 
	C141.510208,217.354187 145.296738,215.725113 149.083252,214.096054 
	C149.083252,214.096054 149.054825,214.083694 149.402115,214.069885 
	C150.911606,213.084030 152.073807,212.111969 153.236008,211.139893 
	C160.680511,205.742416 164.342514,197.845062 166.201385,189.357712 
	C169.297791,175.220016 169.441193,161.005051 164.132599,147.182114 
	C158.423203,132.315598 147.243683,124.266968 131.719330,123.115990 
	C119.816833,122.233543 107.802841,122.885826 95.839233,122.771423 
	C93.342873,122.747551 91.556885,123.230736 91.236694,126.605713 
	C90.544357,127.008423 90.248009,127.000702 89.951622,126.994469 
	C90.423386,125.124367 90.895149,123.254265 92.152565,121.200134 
	C107.622978,121.028824 122.307732,121.041534 136.992493,121.054253 
	C148.428955,123.375847 157.537796,129.375183 163.560852,139.289368 
	C166.111069,143.487137 167.848007,148.485550 168.695663,153.339905 
	C169.999390,160.805954 170.217789,168.461548 170.512756,176.586319 
	C169.742493,179.754745 169.356125,182.373581 168.969757,184.992401 
	C168.398209,193.209900 165.705551,200.331375 160.588013,207.113174 
	C155.477249,213.886032 149.579071,218.448349 141.206207,220.619781 
	C126.610886,221.243622 112.273582,221.612839 97.467606,221.993561 
	C90.968948,221.546005 84.781418,221.729904 78.986809,220.310150 
	C76.681816,219.745392 75.246758,215.630112 73.860603,212.957596 
	C77.207634,214.197906 80.109718,215.611847 83.011795,217.025787 
	C83.011795,217.025787 83.322624,217.188965 83.746109,217.456970 
	C85.090218,217.935074 86.010826,218.145187 86.931435,218.355316 
	C86.931435,218.355316 87.203545,218.506195 87.617477,218.712158 
	C89.713158,219.151581 91.394920,219.385040 93.076675,219.618500 
z"/>
<path fill="#E9F7C3" opacity="1.000000" stroke="none" 
	d="
M138.923065,145.599106 
	C141.516296,148.447754 145.191757,151.270386 146.477158,154.932022 
	C149.891418,164.657883 149.734726,174.835800 147.471939,184.887985 
	C145.338104,194.367233 139.388840,200.360535 129.679657,200.953247 
	C119.121544,201.597778 108.477760,201.360779 97.897835,200.899826 
	C92.806068,200.677979 88.370651,198.114578 85.434601,192.805634 
	C84.866882,191.737610 84.566574,191.204224 84.266273,190.670853 
	C84.266273,190.670853 84.229607,190.315414 84.163559,189.728043 
	C83.690918,184.520569 82.974213,179.903412 82.930443,175.279877 
	C82.720894,153.146439 82.693619,131.011276 82.601562,108.876724 
	C82.706566,107.844559 82.811562,106.812401 83.198914,105.148575 
	C84.070770,102.046410 84.660271,99.575897 85.249763,97.105392 
	C85.590637,96.429634 85.931511,95.753876 86.632851,94.628319 
	C88.649643,91.774155 90.305962,89.369789 91.962288,86.965424 
	C91.962288,86.965424 91.999695,87.000076 92.274017,86.907684 
	C93.038780,86.214928 93.529236,85.614563 94.019684,85.014191 
	C94.019684,85.014191 94.017914,84.974457 94.235794,84.969391 
	C94.453667,84.964325 94.924980,84.920273 95.009369,85.014877 
	C95.093765,85.109482 95.255402,85.304832 95.255402,85.304832 
	C93.209419,88.951248 90.807877,92.449646 89.211868,96.283394 
	C87.415390,100.598686 85.220894,105.197746 85.146561,109.705490 
	C84.748627,133.838486 84.931274,157.981567 84.971405,182.121063 
	C84.987183,191.614395 92.362595,199.070801 101.786041,198.987213 
	C111.074593,198.904831 120.504913,199.486725 129.614594,198.090698 
	C143.817612,195.914124 143.605759,191.640778 145.891632,178.437668 
	C146.842941,172.942902 146.740265,167.026901 145.813843,161.521729 
	C145.080002,157.160965 142.373245,153.128006 140.508362,148.964767 
	C140.045425,147.931274 139.450150,146.957047 138.923065,145.599106 
z"/>
<path fill="#AFC533" opacity="1.000000" stroke="none" 
	d="
M84.281967,41.154655 
	C84.058167,41.755875 83.834358,42.357094 83.263908,43.424278 
	C81.956093,44.939896 80.994919,45.989548 80.010185,46.637901 
	C80.339836,44.801559 80.466148,43.259777 81.082909,41.948715 
	C85.239525,33.113014 82.536949,24.667187 80.075127,14.545468 
	C77.801994,17.386332 75.996155,18.890903 75.162186,20.816410 
	C71.658379,28.906187 67.746635,36.926453 65.386604,45.364399 
	C63.961899,50.458202 64.929001,56.282993 65.247574,61.754513 
	C65.318619,62.974659 67.177437,64.090714 68.077103,65.547546 
	C67.262695,66.646332 66.584335,67.452255 65.593765,68.024139 
	C64.656212,60.601330 63.095978,53.345337 63.606987,46.238270 
	C64.566917,32.887524 71.853539,21.893385 78.988678,11.016695 
	C79.500465,11.230875 80.012260,11.445055 80.741974,12.214734 
	C81.857109,15.248237 82.754326,17.726240 83.733719,20.487572 
	C84.114716,21.261944 84.413544,21.752985 84.712372,22.244024 
	C84.712372,22.244024 84.778503,22.658733 84.800262,23.280132 
	C85.232300,26.270523 85.642570,28.639515 86.052841,31.008507 
	C86.047920,31.449133 86.042992,31.889757 85.778381,32.919872 
	C85.106453,36.057793 84.694214,38.606224 84.281967,41.154655 
z"/>
<path fill="#96BA38" opacity="1.000000" stroke="none" 
	d="
M64.905121,91.973785 
	C65.252724,92.852005 65.910660,93.732925 65.903061,94.608063 
	C65.633148,125.682770 65.300888,156.756943 64.977249,187.831177 
	C64.965126,188.995422 64.951889,190.159653 64.633514,191.470032 
	C63.820942,189.417114 63.314018,187.218079 62.807095,185.019043 
	C62.857819,157.327530 62.908543,129.636017 63.214394,101.219543 
	C63.471893,99.273621 63.474258,98.052635 63.573219,96.500000 
	C63.682568,95.480286 63.695324,94.792229 63.855946,93.830765 
	C64.304253,93.029495 64.604691,92.501640 64.905121,91.973785 
z"/>
<path fill="#F0F7C2" opacity="1.000000" stroke="none" 
	d="
M78.816353,10.751038 
	C71.853539,21.893385 64.566917,32.887524 63.606987,46.238270 
	C63.095978,53.345337 64.656212,60.601330 65.470360,68.256622 
	C65.404198,69.188011 65.149231,69.652885 64.894264,70.117752 
	C63.960049,68.505264 62.357494,66.952110 62.208172,65.269951 
	C61.586216,58.263424 60.194778,51.006702 61.379139,44.243393 
	C62.696125,36.722755 66.306061,29.554333 69.319962,22.402058 
	C70.716652,19.087568 72.936760,16.082037 75.049164,13.126261 
	C75.870712,11.976722 77.424034,11.350163 78.816353,10.751038 
z"/>
<path fill="#EBF7C9" opacity="1.000000" stroke="none" 
	d="
M140.085800,52.038422 
	C141.153641,50.414867 142.221466,48.791317 143.593842,46.688396 
	C144.068207,45.889385 144.238052,45.569740 144.407867,45.250092 
	C144.712936,44.509884 145.018005,43.769676 145.599243,42.483269 
	C146.483948,39.924061 147.092453,37.911060 147.700958,35.898056 
	C147.813248,35.487553 147.925537,35.077053 148.311646,34.069378 
	C148.662094,31.632404 148.738724,29.792606 148.815338,27.952808 
	C148.882355,24.610563 148.949356,21.268318 149.009354,17.044806 
	C148.776779,13.702961 148.613632,11.232306 148.220932,8.798697 
	C148.184967,8.575886 146.680176,8.590103 145.857452,8.494253 
	C145.708084,8.573192 145.558701,8.652131 144.935211,8.983263 
	C143.974060,9.847355 143.487000,10.459252 142.999939,11.071150 
	C142.685211,11.192270 142.370468,11.313393 141.806076,11.453026 
	C140.659515,7.129164 143.767609,5.549342 146.864334,5.485366 
	C148.163025,5.458536 150.599136,8.666625 150.691208,10.495965 
	C151.272934,22.056425 152.010239,33.838112 147.321182,44.741482 
	C145.389267,49.233734 141.367950,52.827423 138.038376,56.419754 
	C138.548447,54.685932 139.317123,53.362175 140.085800,52.038422 
z"/>
<path fill="#EFFACB" opacity="1.000000" stroke="none" 
	d="
M91.177948,141.015625 
	C100.946342,140.767151 110.667038,140.861725 120.385071,141.076950 
	C123.661491,141.149506 126.931129,141.528259 130.602768,142.155365 
	C131.007721,142.713989 131.013794,142.884308 131.019867,143.054626 
	C129.616348,143.352676 128.213608,143.904190 126.809166,143.908615 
	C115.782166,143.943375 104.753860,143.928421 93.729492,143.730957 
	C92.849129,143.715195 91.995338,142.215775 91.177948,141.015625 
z"/>
<path fill="#FDFEF6" opacity="1.000000" stroke="none" 
	d="
M136.909286,120.651031 
	C122.307732,121.041534 107.622978,121.028824 92.469681,121.010788 
	C92.867393,117.712463 94.282059,115.962357 97.958328,118.187317 
	C99.236122,118.960670 101.104050,118.955795 102.704742,118.966568 
	C112.437881,119.032074 122.172348,118.941917 131.904602,119.055710 
	C133.549515,119.074951 135.185806,119.831764 136.909286,120.651031 
z"/>
<path fill="#96BA38" opacity="1.000000" stroke="none" 
	d="
M82.962456,216.680771 
	C80.109718,215.611847 77.207634,214.197906 74.034164,212.597885 
	C73.762779,212.411804 73.593224,212.257324 73.357162,211.979080 
	C72.111275,210.769913 71.101440,209.839005 70.091599,208.908081 
	C70.091599,208.908081 70.016380,209.007751 70.038467,208.629898 
	C69.367928,207.521637 68.675308,206.791229 67.982697,206.060806 
	C67.395851,204.920685 66.809006,203.780563 66.200974,201.912811 
	C65.764191,198.459015 65.348587,195.732849 64.932976,193.006683 
	C65.565659,193.441864 66.710571,193.830032 66.755478,194.319183 
	C67.678879,204.375275 73.797813,210.540085 82.075737,215.162125 
	C82.455055,215.373901 82.638466,215.936523 82.962456,216.680771 
z"/>
<path fill="#EBF7C9" opacity="1.000000" stroke="none" 
	d="
M128.570679,21.766949 
	C128.105469,21.922337 127.640259,22.077724 126.644180,22.459162 
	C124.419151,23.467192 122.724983,24.249172 120.950081,24.973719 
	C120.869347,24.916285 120.721214,24.784674 120.721214,24.784672 
	C121.831024,23.532928 122.750778,22.007198 124.086273,21.080807 
	C128.098145,18.297907 132.242050,15.699880 136.400558,13.137027 
	C137.715057,12.326916 139.237808,11.854680 141.036560,11.397453 
	C138.395966,14.135806 135.384018,16.704514 131.842133,19.580265 
	C131.049438,20.169966 130.786682,20.452625 130.523941,20.735287 
	C130.523941,20.735287 130.233826,20.712990 129.819321,20.829708 
	C129.126770,21.219933 128.848724,21.493439 128.570679,21.766949 
z"/>
<path fill="#E9F7C3" opacity="1.000000" stroke="none" 
	d="
M117.219345,70.911156 
	C116.810425,70.836281 116.805382,70.337021 117.215157,70.105591 
	C119.468315,68.638237 121.311691,67.402313 123.155067,66.166389 
	C123.155067,66.166389 123.039062,66.069252 123.383987,66.121719 
	C124.205940,65.808182 124.682953,65.442184 125.159973,65.076187 
	C125.468857,65.059669 125.746429,64.957802 126.469727,64.490982 
	C129.273575,62.761631 131.600403,61.311893 133.927216,59.862160 
	C132.339752,61.705467 131.066833,64.052826 129.096420,65.282448 
	C125.491226,67.532211 121.473793,69.121376 117.219345,70.911156 
z"/>
<path fill="#99BC40" opacity="1.000000" stroke="none" 
	d="
M134.092346,59.601479 
	C131.600403,61.311893 129.273575,62.761631 126.624435,64.328476 
	C130.657730,60.318348 135.013367,56.191113 139.727386,52.051147 
	C139.317123,53.362175 138.548447,54.685932 137.654907,56.316399 
	C136.439194,57.529007 135.348328,58.434906 134.092346,59.601479 
z"/>
<path fill="#EFFACB" opacity="1.000000" stroke="none" 
	d="
M89.678055,127.299896 
	C90.248009,127.000702 90.544357,127.008423 91.060280,127.011368 
	C91.332413,131.071777 91.384933,135.138474 91.275848,139.581573 
	C90.422386,138.911774 89.199028,137.894669 89.139854,136.813812 
	C88.972595,133.758316 89.282555,130.676666 89.678055,127.299896 
z"/>
<path fill="#E2F1AE" opacity="1.000000" stroke="none" 
	d="
M64.859665,192.832458 
	C65.348587,195.732849 65.764191,198.459015 66.081116,201.595032 
	C61.446205,197.227570 62.018040,191.316269 62.559029,185.242950 
	C63.314018,187.218079 63.820942,189.417114 64.543060,191.948669 
	C64.758263,192.281204 64.786346,192.658218 64.859665,192.832458 
z"/>
<path fill="#E9F7C3" opacity="1.000000" stroke="none" 
	d="
M108.213371,76.245598 
	C104.119667,79.200935 100.025963,82.156273 95.593826,85.208221 
	C95.255402,85.304832 95.093765,85.109482 95.128548,84.706612 
	C98.511528,81.625214 101.859718,78.946686 105.207909,76.268150 
	C105.207909,76.268150 105.245995,76.147202 105.578125,76.193939 
	C106.544334,76.094994 107.178398,75.949310 107.914001,75.912933 
	C108.015541,76.022240 108.213371,76.245598 108.213371,76.245598 
z"/>
<path fill="#E2F1AE" opacity="1.000000" stroke="none" 
	d="
M64.898407,91.606964 
	C64.604691,92.501640 64.304253,93.029495 63.616615,93.815048 
	C63.229416,94.072746 62.752121,94.011101 62.752121,94.011101 
	C62.855694,91.663101 62.959263,89.315094 63.344482,86.363449 
	C64.057137,84.830093 64.488136,83.900398 64.919144,82.970695 
	C65.517670,80.546677 66.116196,78.122650 67.154144,75.370583 
	C67.773979,75.052361 67.954391,75.062195 68.122299,75.463257 
	C67.123589,80.255997 66.137390,84.657509 65.151199,89.059021 
	C65.064697,89.786057 64.978195,90.513100 64.898407,91.606964 
z"/>
<path fill="#F0FBD4" opacity="1.000000" stroke="none" 
	d="
M118.371750,27.503319 
	C117.417168,27.913139 116.462593,28.322958 114.960190,28.895828 
	C113.932106,29.365622 113.451851,29.672361 112.971596,29.979103 
	C112.971596,29.979107 112.998016,30.001999 112.642105,29.993233 
	C111.229614,30.371908 110.173035,30.759352 109.047394,31.064951 
	C108.978348,30.983105 108.839401,30.820139 108.839401,30.820139 
	C110.473129,24.953505 116.000366,26.397490 120.340485,24.841150 
	C120.721214,24.784674 120.869347,24.916285 120.765358,25.219316 
	C119.898163,26.182671 119.134956,26.842995 118.371750,27.503319 
z"/>
<path fill="#EFFACF" opacity="1.000000" stroke="none" 
	d="
M82.969345,51.977280 
	C82.518623,52.236176 82.067902,52.495071 80.961670,52.895973 
	C79.418411,53.074524 78.530647,53.111065 77.690247,52.756840 
	C77.870392,51.590130 78.003181,50.814182 78.228447,49.941544 
	C78.320923,49.844856 78.334602,49.577629 78.498863,49.585358 
	C78.663124,49.593090 78.986534,49.533321 79.265709,49.676460 
	C81.054901,48.527088 82.564919,47.234581 84.074928,45.942070 
	C84.698547,46.324589 85.322159,46.707108 85.950119,47.705597 
	C85.934479,48.533916 85.914490,48.746265 85.894501,48.958611 
	C85.315727,49.428219 84.736954,49.897831 83.807434,50.719078 
	C83.294235,51.372902 83.131790,51.675095 82.969345,51.977280 
z"/>
<path fill="#E2F1AE" opacity="1.000000" stroke="none" 
	d="
M65.082840,70.354378 
	C65.149231,69.652885 65.404198,69.188011 65.782578,68.490662 
	C66.584335,67.452255 67.262695,66.646332 68.071396,65.521744 
	C68.201736,65.203079 68.210098,65.153488 68.451111,65.035965 
	C69.122185,64.602814 69.552238,64.287170 70.125397,64.196663 
	C71.018585,64.887985 71.768669,65.354179 72.518753,65.820374 
	C72.518753,65.820374 72.708344,66.255539 72.528366,66.645088 
	C71.733047,67.397980 71.117706,67.761314 70.339478,67.980835 
	C69.975739,67.846123 69.774887,67.855225 69.574036,67.864334 
	C69.754684,68.077026 69.935333,68.289719 70.251053,68.728600 
	C70.303497,69.289986 70.220886,69.625191 69.776062,69.967033 
	C68.597130,70.356361 67.780411,70.739044 66.963692,71.121727 
	C66.399597,70.944817 65.835503,70.767914 65.082840,70.354378 
z"/>
<path fill="#EFFACF" opacity="1.000000" stroke="none" 
	d="
M91.459641,42.992012 
	C92.710594,41.306042 93.730759,39.350925 95.284782,38.018414 
	C96.550598,36.933025 98.455353,36.592800 100.538925,35.970825 
	C101.001068,36.019497 101.198212,36.240379 101.009132,36.504002 
	C99.166130,38.125351 97.512207,39.483078 95.858284,40.840805 
	C95.858284,40.840805 95.926781,40.849682 95.538971,40.870361 
	C93.920654,41.591358 92.690147,42.291683 91.459641,42.992012 
z"/>
<path fill="#FDFFF3" opacity="1.000000" stroke="none" 
	d="
M169.374847,184.982147 
	C169.356125,182.373581 169.742493,179.754745 170.497726,177.030029 
	C172.287109,179.847443 173.691254,182.768539 169.374847,184.982147 
z"/>
<path fill="#E9F7C3" opacity="1.000000" stroke="none" 
	d="
M115.011353,70.983971 
	C115.418015,70.910492 115.824677,70.837006 116.540527,70.786697 
	C115.896950,75.075775 112.338600,75.463348 108.584831,76.179276 
	C108.213371,76.245598 108.015541,76.022240 107.978882,75.710510 
	C107.942230,75.398773 108.014076,74.979256 108.014076,74.979256 
	C108.542313,74.772606 109.070549,74.565956 110.105759,74.080597 
	C112.078934,72.862587 113.545143,71.923279 115.011353,70.983971 
z"/>
<path fill="#EAF4A8" opacity="1.000000" stroke="none" 
	d="
M84.615326,41.042999 
	C84.694214,38.606224 85.106453,36.057793 85.794693,33.250053 
	C85.696693,35.637615 85.322685,38.284477 84.615326,41.042999 
z"/>
<path fill="#F0F7C2" opacity="1.000000" stroke="none" 
	d="
M83.651543,20.204243 
	C82.754326,17.726240 81.857109,15.248237 80.949203,12.404230 
	C82.274055,14.453856 83.609596,16.869486 84.609550,19.691904 
	C84.066490,20.133875 83.859016,20.169058 83.651543,20.204243 
z"/>
<path fill="#E2F1AE" opacity="1.000000" stroke="none" 
	d="
M84.019867,45.534485 
	C82.564919,47.234581 81.054901,48.527088 79.482208,49.400909 
	C79.626205,48.330647 79.832886,47.679073 80.032059,47.019180 
	C80.024567,47.010860 80.033752,47.039204 80.033752,47.039204 
	C80.994919,45.989548 81.956093,44.939896 83.172562,43.732086 
	C83.606842,44.091583 83.785828,44.609241 84.019867,45.534485 
z"/>
<path fill="#EFFACF" opacity="1.000000" stroke="none" 
	d="
M66.971771,71.511032 
	C67.780411,70.739044 68.597130,70.356361 69.792709,70.256409 
	C70.238716,70.720245 70.305855,70.901352 70.373001,71.082458 
	C69.903450,72.144905 69.433899,73.207344 68.750801,74.606651 
	C68.537254,74.943512 68.134811,75.072037 68.134811,75.072037 
	C67.954391,75.062195 67.773979,75.052361 67.323090,75.041710 
	C67.028358,73.994041 67.004105,72.947189 66.971771,71.511032 
z"/>
<path fill="#EAF4A8" opacity="1.000000" stroke="none" 
	d="
M86.318787,30.774242 
	C85.642570,28.639515 85.232300,26.270523 84.867538,23.479038 
	C85.095284,23.034822 85.277504,23.013102 85.719986,23.356842 
	C86.300682,24.818960 86.621117,25.915613 86.941544,27.012266 
	C86.822609,28.188168 86.703674,29.364071 86.318787,30.774242 
z"/>
<path fill="#EFFACF" opacity="1.000000" stroke="none" 
	d="
M100.898705,35.912567 
	C101.921196,34.853691 103.046051,33.901745 104.588852,32.974365 
	C105.006790,32.998928 105.146851,33.161903 105.059204,33.479652 
	C103.713776,34.611725 102.455994,35.426052 101.198212,36.240379 
	C101.198212,36.240379 101.001068,36.019497 100.898705,35.912567 
z"/>
<path fill="#FAFFE6" opacity="1.000000" stroke="none" 
	d="
M62.448265,94.067245 
	C62.752121,94.011101 63.229416,94.072746 63.468746,94.088463 
	C63.695324,94.792229 63.682568,95.480286 63.342216,96.532562 
	C62.711128,96.976875 62.402447,97.017807 62.088570,97.019569 
	C62.107185,96.054176 62.125797,95.088776 62.448265,94.067245 
z"/>
<path fill="#FBFDE0" opacity="1.000000" stroke="none" 
	d="
M87.218903,26.799431 
	C86.621117,25.915613 86.300682,24.818960 85.995255,23.357758 
	C86.505592,24.191006 87.000916,25.388802 87.218903,26.799431 
z"/>
<path fill="#96BA38" opacity="1.000000" stroke="none" 
	d="
M91.500008,43.197041 
	C92.690147,42.291683 93.920654,41.591358 95.500534,40.857258 
	C94.730476,41.860428 93.611046,42.897377 92.103188,43.858109 
	C91.714760,43.781887 91.540375,43.402073 91.500008,43.197041 
z"/>
<path fill="#E9F6C3" opacity="1.000000" stroke="none" 
	d="
M70.072495,209.294189 
	C71.101440,209.839005 72.111275,210.769913 73.245972,211.950974 
	C72.265022,211.360840 71.159210,210.520569 70.072495,209.294189 
z"/>
<path fill="#E2F1AE" opacity="1.000000" stroke="none" 
	d="
M62.074615,97.381226 
	C62.402447,97.017807 62.711128,96.976875 63.245621,96.864220 
	C63.474258,98.052635 63.471893,99.273621 63.206108,100.751518 
	C62.648682,99.919922 62.354671,98.831398 62.074615,97.381226 
z"/>
<path fill="#F0FBD4" opacity="1.000000" stroke="none" 
	d="
M104.934723,32.919239 
	C105.953621,32.205238 107.044586,31.570927 108.487473,30.878378 
	C108.839401,30.820139 108.978348,30.983105 108.859718,31.333813 
	C107.543007,32.176983 106.344933,32.669445 105.146851,33.161903 
	C105.146851,33.161903 105.006790,32.998928 104.934723,32.919239 
z"/>
<path fill="#96BA38" opacity="1.000000" stroke="none" 
	d="
M91.450928,43.832291 
	C90.939804,44.771141 90.115387,45.774658 88.926254,46.620861 
	C89.420227,45.608021 90.278931,44.752491 91.450928,43.832291 
z"/>
<path fill="#96BA38" opacity="1.000000" stroke="none" 
	d="
M86.285103,48.976151 
	C85.914490,48.746265 85.934479,48.533916 85.963120,48.000832 
	C86.621574,47.302338 87.271378,46.924587 88.199501,46.531574 
	C87.877113,47.342106 87.276405,48.167896 86.285103,48.976151 
z"/>
<path fill="#FAFFE6" opacity="1.000000" stroke="none" 
	d="
M64.579620,83.040710 
	C64.488136,83.900398 64.057137,84.830093 63.347778,85.923363 
	C63.459648,85.094864 63.849873,84.102791 64.579620,83.040710 
z"/>
<path fill="#E9F6C3" opacity="1.000000" stroke="none" 
	d="
M68.007904,206.410675 
	C68.675308,206.791229 69.367928,207.521637 70.081802,208.583755 
	C69.413078,208.197159 68.723099,207.478867 68.007904,206.410675 
z"/>
<path fill="#EAF4A8" opacity="1.000000" stroke="none" 
	d="
M83.733719,20.487572 
	C83.859016,20.169058 84.066490,20.133875 84.587463,20.073376 
	C84.914764,20.542358 84.928558,21.036657 84.827362,21.887489 
	C84.413544,21.752985 84.114716,21.261944 83.733719,20.487572 
z"/>
<path fill="#E9F7C3" opacity="1.000000" stroke="none" 
	d="
M137.055939,144.434204 
	C137.263062,144.279648 137.591965,144.357742 138.039551,144.672272 
	C137.831406,144.828079 137.504562,144.747452 137.055939,144.434204 
z"/>
<path fill="#E9F7C3" opacity="1.000000" stroke="none" 
	d="
M131.234497,142.997620 
	C131.013794,142.884308 131.007721,142.713989 130.999542,142.288239 
	C131.184433,142.019577 131.371460,142.006363 131.792084,142.150757 
	C131.943192,142.619141 131.751007,142.829880 131.234497,142.997620 
z"/>
<path fill="#9ABC42" opacity="1.000000" stroke="none" 
	d="
M82.250809,109.038025 
	C82.693619,131.011276 82.720894,153.146439 82.930443,175.279877 
	C82.974213,179.903412 83.690918,184.520569 84.081924,189.569122 
	C83.060371,187.274017 81.208878,184.558975 81.181290,181.825546 
	C80.946129,158.529602 81.032516,135.230286 81.075531,111.932083 
	C81.077209,111.020660 81.613091,110.110214 82.250809,109.038025 
z"/>
<path fill="#EFFACF" opacity="1.000000" stroke="none" 
	d="
M72.681061,65.633362 
	C71.768669,65.354179 71.018585,64.887985 70.171326,63.853874 
	C71.613770,61.159565 73.153397,59.033173 75.003174,56.788185 
	C75.519783,56.069969 75.726227,55.470356 76.131897,54.640663 
	C76.772835,53.989674 77.214546,53.568771 77.828751,53.527695 
	C78.393616,54.294453 78.785988,54.681385 79.100266,55.368847 
	C78.937531,56.073334 78.852890,56.477291 78.768250,56.881252 
	C78.439163,57.251743 78.110077,57.622234 77.440552,58.373096 
	C76.699165,59.486488 76.298195,60.219505 75.897232,60.952526 
	C75.491089,61.583637 75.084946,62.214745 74.405174,63.300362 
	C73.940567,64.094612 73.749588,64.434364 73.558601,64.774109 
	C73.258331,64.932381 73.019913,65.156464 72.681061,65.633362 
z"/>
<path fill="#96BA38" opacity="1.000000" stroke="none" 
	d="
M105.059204,33.479652 
	C106.344933,32.669445 107.543007,32.176983 108.928772,31.415659 
	C110.173035,30.759352 111.229614,30.371908 112.634842,29.977829 
	C111.302879,31.496790 109.791649,33.287804 107.905563,34.491383 
	C104.252831,36.822327 100.389076,38.822590 96.235535,40.900349 
	C97.512207,39.483078 99.166130,38.125351 101.009132,36.504002 
	C102.455994,35.426052 103.713776,34.611725 105.059204,33.479652 
z"/>
<path fill="#91B92B" opacity="1.000000" stroke="none" 
	d="
M104.809402,76.183701 
	C101.859718,78.946686 98.511528,81.625214 95.044159,84.612007 
	C94.924980,84.920273 94.453667,84.964325 94.216972,84.962967 
	C94.469994,81.199158 99.850044,76.628006 104.809402,76.183701 
z"/>
<path fill="#96BA38" opacity="1.000000" stroke="none" 
	d="
M68.122299,75.463257 
	C68.134811,75.072037 68.537254,74.943512 68.747948,74.958000 
	C67.922508,79.601318 66.886383,84.230141 65.500725,88.959000 
	C66.137390,84.657509 67.123589,80.255997 68.122299,75.463257 
z"/>
<path fill="#96BA38" opacity="1.000000" stroke="none" 
	d="
M148.677551,214.051422 
	C145.296738,215.725113 141.510208,217.354187 137.337555,218.938736 
	C140.724884,217.265076 144.498367,215.635941 148.677551,214.051422 
z"/>
<path fill="#99BD42" opacity="1.000000" stroke="none" 
	d="
M145.929871,8.896008 
	C146.680176,8.590103 148.184967,8.575886 148.220932,8.798697 
	C148.613632,11.232306 148.776779,13.702961 148.924500,16.595943 
	C147.898514,14.451487 146.950409,11.874625 145.929871,8.896008 
z"/>
<path fill="#9ABC42" opacity="1.000000" stroke="none" 
	d="
M91.593887,86.966621 
	C90.305962,89.369789 88.649643,91.774155 86.705170,94.348045 
	C86.229149,90.860489 87.585175,88.186714 91.593887,86.966621 
z"/>
<path fill="#96BA38" opacity="1.000000" stroke="none" 
	d="
M118.762985,27.632278 
	C119.134956,26.842995 119.898163,26.182671 120.846092,25.276751 
	C122.724983,24.249172 124.419151,23.467192 126.466415,22.632866 
	C124.264420,24.307425 121.709320,26.034332 118.762985,27.632278 
z"/>
<path fill="#9ABC42" opacity="1.000000" stroke="none" 
	d="
M84.915771,97.241318 
	C84.660271,99.575897 84.070770,102.046410 83.201294,104.757980 
	C83.474808,102.458450 84.028297,99.917847 84.915771,97.241318 
z"/>
<path fill="#91B92B" opacity="1.000000" stroke="none" 
	d="
M122.783554,66.134048 
	C121.311691,67.402313 119.468315,68.638237 117.281631,69.864960 
	C118.762909,68.604416 120.587471,67.353058 122.783554,66.134048 
z"/>
<path fill="#91B92B" opacity="1.000000" stroke="none" 
	d="
M114.800583,70.731659 
	C113.545143,71.923279 112.078934,72.862587 110.280540,73.850525 
	C109.895302,70.587387 112.239731,70.529549 114.800583,70.731659 
z"/>
<path fill="#99BD42" opacity="1.000000" stroke="none" 
	d="
M147.364746,36.008392 
	C147.092453,37.911060 146.483948,39.924061 145.611649,42.178658 
	C145.908096,40.319744 146.468307,38.219238 147.364746,36.008392 
z"/>
<path fill="#99BD42" opacity="1.000000" stroke="none" 
	d="
M148.521881,28.144398 
	C148.738724,29.792606 148.662094,31.632404 148.313751,33.749252 
	C148.104172,32.129532 148.166290,30.232759 148.521881,28.144398 
z"/>
<path fill="#96BA38" opacity="1.000000" stroke="none" 
	d="
M70.707306,71.004494 
	C70.305855,70.901352 70.238716,70.720245 70.154922,70.249763 
	C70.220886,69.625191 70.303497,69.289986 70.346825,68.633324 
	C70.307533,68.311859 70.502365,68.124657 70.502365,68.124649 
	C71.117706,67.761314 71.733047,67.397980 72.581009,66.876511 
	C72.222946,68.121094 71.632278,69.523811 70.707306,71.004494 
z"/>
<path fill="#96BA38" opacity="1.000000" stroke="none" 
	d="
M92.939621,219.271622 
	C91.394920,219.385040 89.713158,219.151581 87.763359,218.658142 
	C89.264397,218.573685 91.033478,218.749222 92.939621,219.271622 
z"/>
<path fill="#96BA38" opacity="1.000000" stroke="none" 
	d="
M152.851624,211.094482 
	C152.073807,212.111969 150.911606,213.084030 149.421448,214.083588 
	C150.218079,213.090408 151.342651,212.069733 152.851624,211.094482 
z"/>
<path fill="#91B92B" opacity="1.000000" stroke="none" 
	d="
M107.800491,74.723854 
	C108.014076,74.979256 107.942230,75.398773 107.877350,75.601196 
	C107.178398,75.949310 106.544334,76.094994 105.587593,76.256630 
	C106.038910,75.671204 106.812904,75.069824 107.800491,74.723854 
z"/>
<path fill="#96BA38" opacity="1.000000" stroke="none" 
	d="
M134.859970,218.830093 
	C134.198837,219.340027 133.369431,219.587112 132.219177,219.712280 
	C132.829468,219.249313 133.760574,218.908279 134.859970,218.830093 
z"/>
<path fill="#96BA38" opacity="1.000000" stroke="none" 
	d="
M79.115540,56.889816 
	C78.852890,56.477291 78.937531,56.073334 79.348038,55.279957 
	C80.150177,54.677914 80.626434,54.465290 81.102699,54.252666 
	C80.556076,55.134571 80.009460,56.016479 79.115540,56.889816 
z"/>
<path fill="#99BD42" opacity="1.000000" stroke="none" 
	d="
M143.192993,11.297001 
	C143.487000,10.459252 143.974060,9.847355 144.755585,9.162043 
	C144.495407,9.900036 143.940735,10.711443 143.192993,11.297001 
z"/>
<path fill="#E2F1AE" opacity="1.000000" stroke="none" 
	d="
M81.145111,53.958187 
	C80.626434,54.465290 80.150177,54.677914 79.426132,54.979427 
	C78.785988,54.681385 78.393616,54.294453 77.856407,53.543461 
	C77.711571,53.179401 77.642891,53.147602 77.642891,53.147602 
	C78.530647,53.111065 79.418411,53.074524 80.751884,53.053371 
	C81.194244,53.267075 81.190887,53.465393 81.145111,53.958187 
z"/>
<path fill="#96BA38" opacity="1.000000" stroke="none" 
	d="
M76.266251,60.920795 
	C76.298195,60.219505 76.699165,59.486488 77.403564,58.626747 
	C77.349747,59.296375 76.992508,60.092720 76.266251,60.920795 
z"/>
<path fill="#96BA38" opacity="1.000000" stroke="none" 
	d="
M86.765457,218.009094 
	C86.010826,218.145187 85.090218,217.935074 83.921547,217.462631 
	C84.648819,217.354477 85.624153,217.508667 86.765457,218.009094 
z"/>
<path fill="#9ABC42" opacity="1.000000" stroke="none" 
	d="
M93.696617,85.038681 
	C93.529236,85.614563 93.038780,86.214928 92.257355,86.888519 
	C92.435425,86.328880 92.904488,85.696022 93.696617,85.038681 
z"/>
<path fill="#96BA38" opacity="1.000000" stroke="none" 
	d="
M113.272018,29.996059 
	C113.451851,29.672361 113.932106,29.365622 114.715508,29.094851 
	C114.536583,29.424887 114.054512,29.718952 113.272018,29.996059 
z"/>
<path fill="#9ABC42" opacity="1.000000" stroke="none" 
	d="
M84.193390,191.010452 
	C84.566574,191.204224 84.866882,191.737610 85.187286,192.585373 
	C84.845093,192.383194 84.482803,191.866623 84.193390,191.010452 
z"/>
<path fill="#96BA38" opacity="1.000000" stroke="none" 
	d="
M83.116318,52.154816 
	C83.131790,51.675095 83.294235,51.372902 83.713028,50.994499 
	C83.734016,51.389641 83.498650,51.860992 83.116318,52.154816 
z"/>
<path fill="#91B92B" opacity="1.000000" stroke="none" 
	d="
M124.831009,65.059555 
	C124.682953,65.442184 124.205940,65.808182 123.419037,66.188766 
	C123.573448,65.816536 124.037743,65.429726 124.831009,65.059555 
z"/>
<path fill="#96BA38" opacity="1.000000" stroke="none" 
	d="
M130.842422,20.722670 
	C130.786682,20.452625 131.049438,20.169966 131.596161,19.809795 
	C131.640411,20.058208 131.400650,20.384132 130.842422,20.722670 
z"/>
<path fill="#96BA38" opacity="1.000000" stroke="none" 
	d="
M128.879807,21.761662 
	C128.848724,21.493439 129.126770,21.219933 129.701614,20.915197 
	C129.728592,21.174772 129.458771,21.465576 128.879807,21.761662 
z"/>
<path fill="#96BA38" opacity="1.000000" stroke="none" 
	d="
M73.892220,64.707779 
	C73.749588,64.434364 73.940567,64.094612 74.374336,63.587784 
	C74.486694,63.827621 74.356270,64.234543 73.892220,64.707779 
z"/>
<path fill="#99BD42" opacity="1.000000" stroke="none" 
	d="
M144.090225,45.306984 
	C144.238052,45.569740 144.068207,45.889385 143.674194,46.367203 
	C143.557541,46.138210 143.665054,45.751041 144.090225,45.306984 
z"/>
<path fill="#A7C504" opacity="1.000000" stroke="none" 
	d="
M78.334595,49.577629 
	C78.334602,49.577629 78.320923,49.844856 77.863663,49.950954 
	C74.679062,53.042103 71.951721,56.027153 68.559608,59.739796 
	C68.495377,60.734695 68.352737,62.944092 68.210098,65.153488 
	C68.210098,65.153488 68.201736,65.203079 68.207443,65.228882 
	C67.177437,64.090714 65.318619,62.974659 65.247574,61.754513 
	C64.929001,56.282993 63.961899,50.458202 65.386604,45.364399 
	C67.746635,36.926453 71.658379,28.906187 75.162186,20.816410 
	C75.996155,18.890903 77.801994,17.386332 80.075127,14.545468 
	C82.536949,24.667187 85.239525,33.113014 81.082909,41.948715 
	C80.466148,43.259777 80.339836,44.801559 80.010185,46.637901 
	C80.033752,47.039204 80.024567,47.010860 79.663170,47.060596 
	C78.979385,47.932766 78.656990,48.755196 78.334595,49.577629 
z"/>
<path fill="#AFC533" opacity="1.000000" stroke="none" 
	d="
M68.451111,65.035965 
	C68.352737,62.944092 68.495377,60.734695 68.559608,59.739796 
	C71.951721,56.027153 74.679062,53.042103 77.771179,50.047646 
	C78.003181,50.814182 77.870392,51.590130 77.690247,52.756840 
	C77.642891,53.147602 77.711571,53.179401 77.683914,53.163635 
	C77.214546,53.568771 76.772835,53.989674 75.863457,54.804817 
	C75.161530,55.768299 74.927269,56.337540 74.693016,56.906784 
	C73.153397,59.033173 71.613770,61.159565 70.028214,63.628746 
	C69.552238,64.287170 69.122185,64.602814 68.451111,65.035965 
z"/>
<path fill="#AFC533" opacity="1.000000" stroke="none" 
	d="
M78.498856,49.585358 
	C78.656990,48.755196 78.979385,47.932766 79.670670,47.068916 
	C79.832886,47.679073 79.626205,48.330647 79.203033,49.257771 
	C78.986534,49.533321 78.663124,49.593090 78.498856,49.585358 
z"/>
<path fill="#EFFACF" opacity="1.000000" stroke="none" 
	d="
M70.211761,68.407135 
	C69.935333,68.289719 69.754684,68.077026 69.574036,67.864334 
	C69.774887,67.855225 69.975739,67.846123 70.339478,67.980835 
	C70.502365,68.124657 70.307533,68.311859 70.211761,68.407135 
z"/>
<path fill="#E2F1AE" opacity="1.000000" stroke="none" 
	d="
M75.003174,56.788185 
	C74.927269,56.337540 75.161530,55.768299 75.664230,55.034904 
	C75.726227,55.470356 75.519783,56.069969 75.003174,56.788185 
z"/>
</svg>