<?xml version="1.0" encoding="UTF-8"?>
<svg version="1.1" xmlns="http://www.w3.org/2000/svg" width="1080" height="1080">
<path d="M0 0 C356.4 0 712.8 0 1080 0 C1080 356.4 1080 712.8 1080 1080 C723.6 1080 367.2 1080 0 1080 C0 723.6 0 367.2 0 0 Z " fill="#FEFEFE" transform="translate(0,0)"/>
<path d="M0 0 C2.15227912 -0.00173286 4.30455752 -0.00391474 6.45683622 -0.00610161 C80.02905366 -0.07207116 153.75284625 1.3858718 227.06047773 8.05430794 C230.01371824 8.32206603 232.96748379 8.58326248 235.92143965 8.84300423 C246.30390054 9.75753279 256.68288922 10.70437137 267.05977583 11.67997932 C273.45721432 12.27827936 279.85860903 12.80757372 286.26421309 13.31077766 C313.2206756 15.48242743 340.09677569 18.66361867 366.88921309 22.31077766 C368.3610512 22.51019119 369.83289378 22.70957168 371.30474043 22.9089222 C375.93780418 23.53752245 380.56989794 24.17304956 385.20171309 24.81077766 C385.90024397 24.90656105 386.59877485 25.00234444 387.31847334 25.10103035 C397.05095849 26.43925785 406.7631173 27.89473817 416.47197676 29.39476204 C418.26899157 29.67183998 418.26899157 29.67183998 420.1023097 29.95451546 C423.03134054 30.4061959 425.96030645 30.85829266 428.88921309 31.31077766 C428.9362759 55.5923293 428.97136768 79.87387394 428.99283743 104.15546227 C429.00307842 115.43397499 429.01699841 126.71245911 429.04009199 137.99095345 C429.06024891 147.84006833 429.07298138 157.68916247 429.07739007 167.53829741 C429.07996042 172.73624926 429.08584469 177.93414184 429.1006732 183.13207436 C429.16959326 208.2709756 428.59754833 233.2281002 426.88921309 258.31077766 C426.71754822 261.00314869 426.54917 263.69570121 426.38160563 266.38832951 C426.16283514 269.78141227 425.90563375 273.17114805 425.63921309 276.56077766 C425.58218214 277.29754738 425.5251512 278.03431709 425.46639204 278.79341316 C423.39640648 305.03847261 420.1157227 331.32499865 415.88921309 357.31077766 C410.84210353 356.28424691 406.07288836 355.04614181 401.20171309 353.37327766 C367.98897354 343.12148407 331.24488095 346.23933114 300.28398848 361.33738899 C267.31949775 377.18943646 228.48106892 377.62434583 194.03960371 366.16844368 C189.19550051 364.46858941 184.45269886 362.55685377 179.72905684 360.54905891 C161.51548147 352.90167904 143.3141113 349.85303514 123.63921309 349.87327766 C122.94810438 349.87296547 122.25699568 349.87265327 121.54494429 349.87233162 C102.943451 349.93634379 86.07790098 353.56047312 68.91265059 360.66234016 C57.17109166 365.51300922 45.41867654 370.00691593 32.88921309 372.31077766 C31.99830976 372.48278694 31.10740644 372.65479622 30.18950605 372.8320179 C24.36821785 373.67648795 18.49547846 373.49670732 12.62432051 373.4960804 C10.35760378 373.49824812 8.0913896 373.51638122 5.82475996 373.53538704 C-8.06962085 373.59383919 -20.36047564 371.62429903 -33.54828691 367.06077766 C-34.73768877 366.65818733 -35.92709063 366.255597 -37.15253496 365.84080696 C-43.03074757 363.82388784 -48.77073449 361.70319566 -54.42328691 359.12327766 C-87.25043462 344.35517487 -126.48551214 344.18819225 -159.92768145 356.46507454 C-163.35643337 357.79332288 -166.70068619 359.29169482 -170.04828691 360.81077766 C-183.79296582 367.02165445 -197.96083057 371.56819122 -213.11078691 372.31077766 C-214.10723223 372.35992317 -215.10367754 372.40906868 -216.13031816 372.45970345 C-241.840104 373.51332128 -264.78753472 368.96761974 -288.54828691 359.31077766 C-322.17808235 345.65604918 -356.10660621 345.82602872 -391.11078691 354.31077766 C-392.77628751 354.64988924 -394.44273941 354.98442445 -396.11078691 355.31077766 C-400.01905566 331.81755033 -403.16249035 308.4633935 -404.81708574 284.69944954 C-405.01126054 282.4590953 -405.27012048 280.2233186 -405.59612513 277.99832153 C-409.43391831 250.50059188 -408.38487863 222.13821792 -408.31357479 194.45827436 C-408.30085407 188.66351856 -408.29988048 182.86875939 -408.29752398 177.07399178 C-408.29137062 166.1599032 -408.2750454 155.24585592 -408.254825 144.33178532 C-408.23227162 131.88142094 -408.2214243 119.43105431 -408.21143413 106.98067451 C-408.19067178 81.42401956 -408.15561888 55.86740095 -408.11078691 30.31077766 C-407.14226793 30.18526024 -407.14226793 30.18526024 -406.15418291 30.05720711 C-403.17610342 29.67093305 -400.19813241 29.28382854 -397.22016191 28.89671516 C-395.69721514 28.69936775 -395.69721514 28.69936775 -394.14350176 28.49803352 C-387.87679064 27.68270882 -381.61631319 26.83286333 -375.36078691 25.93577766 C-374.42589434 25.80244026 -373.49100176 25.66910286 -372.5277791 25.53172493 C-367.81004957 24.85089066 -363.09396259 24.16023429 -358.37940264 23.45775032 C-337.21220922 20.31028667 -316.03505582 17.73047419 -294.74451494 15.57902718 C-292.01929056 15.30145861 -289.29472609 15.01804822 -286.57025957 14.73314095 C-235.54814959 9.40569743 -184.46543154 5.62330927 -133.23578691 3.06077766 C-131.99034294 2.99800196 -131.99034294 2.99800196 -130.71973848 2.93395805 C-118.85238811 2.33638984 -106.98367238 1.78659957 -95.11078691 1.31077766 C-94.06558886 1.26878431 -94.06558886 1.26878431 -92.99927568 1.22594261 C-62.01611492 0.00147418 -31.00276782 0.02449402 0 0 Z " fill="#C71E25" transform="translate(527.1107869148254,100.68922233581543)"/>
<path d="M0 0 C1.31097656 -0.00322266 2.62195313 -0.00644531 3.97265625 -0.00976562 C12.32919539 0.03587585 20.28931298 0.7817168 28.5 2.3125 C29.82221558 2.54151001 29.82221558 2.54151001 31.17114258 2.77514648 C37.19078886 3.87885588 42.90157111 5.58521603 48.6875 7.5625 C49.60096191 7.86969971 50.51442383 8.17689941 51.45556641 8.4934082 C56.83917747 10.32746345 62.12483302 12.31601516 67.375 14.5 C74.61824637 17.4602833 81.87800598 19.56433623 89.5 21.3125 C91.35044922 21.76302734 91.35044922 21.76302734 93.23828125 22.22265625 C125.64494248 29.43998485 156.77731939 22.15587548 186.45239258 9.16894531 C218.83660454 -4.66482285 256.83523308 -2.59233685 289.5 9.3125 C291.28743589 10.10959979 293.06200404 10.93725202 294.8125 11.8125 C302.94673129 15.78354205 311.99087325 17.58642011 320.75537109 19.66210938 C322.40432064 20.05285849 324.05128071 20.45237536 325.69384766 20.86914062 C356.91312724 28.71498711 389.17332831 22.67702983 418.16235352 10.52514648 C419.22667603 10.07957397 419.22667603 10.07957397 420.3125 9.625 C421.01109131 9.33246338 421.70968262 9.03992676 422.42944336 8.73852539 C437.93231254 2.34361466 453.41358057 -0.07447926 470.125 0 C471.43807129 0.00491455 472.75114258 0.0098291 474.10400391 0.01489258 C494.01849852 0.25345545 511.3721118 4.48688003 529.71582031 12.00439453 C568.59418908 27.82981931 608.85289384 28.87367257 647.67578125 12.51953125 C649.76047443 11.63425059 651.84511021 10.74883476 653.9296875 9.86328125 C687.02864099 -4.10234171 722.35178888 -1.50427273 756.5 7.3125 C755.64491895 14.56594615 754.00207216 21.38433124 751.87109375 28.3515625 C751.60947952 29.21470062 751.3478653 30.07783875 751.07832336 30.96713257 C748.20742201 40.37596541 745.17887507 49.73361002 742.12084961 59.08300781 C741.16802364 61.99706517 740.21954248 64.91251336 739.27148438 67.828125 C738.6643116 69.69018541 738.05689934 71.55216775 737.44921875 73.4140625 C737.16696945 74.28157135 736.88472015 75.1490802 736.59391785 76.0428772 C736.333069 76.83906464 736.07222015 77.63525208 735.8034668 78.45556641 C735.57507614 79.15469147 735.34668549 79.85381653 735.1113739 80.5741272 C734.5 82.3125 734.5 82.3125 733.5 84.3125 C732.38141602 84.30202637 731.26283203 84.29155273 730.11035156 84.28076172 C725.9057951 84.24418597 721.70125229 84.22146472 717.49658203 84.20263672 C715.68698755 84.19266384 713.87740882 84.17908068 712.06787109 84.16162109 C698.37277846 84.03292205 685.92262429 84.96597604 672.75 89 C671.89510986 89.25837646 671.04021973 89.51675293 670.15942383 89.78295898 C663.97841788 91.71103722 658.11774629 94.07959315 652.23413086 96.76733398 C637.05115926 103.67008192 621.19127907 107.77301694 604.5 108.3125 C603.71028809 108.33973145 602.92057617 108.36696289 602.10693359 108.39501953 C590.61483336 108.74299971 579.77101941 108.24380903 568.53417969 105.75683594 C566.52027461 105.31692868 564.50139064 104.9251651 562.4765625 104.5390625 C551.83074891 102.39306846 542.06722158 98.53301107 532.01171875 94.49609375 C506.10106156 84.13626384 477.03395078 80.34796658 449.5 86.3125 C448.33210938 86.53421875 447.16421875 86.7559375 445.9609375 86.984375 C435.19075475 89.3095061 425.34915083 93.50540653 415.26171875 97.875 C381.1903283 112.45657003 344.1086762 111.60293996 309.5 99.3125 C307.15256875 98.34605756 304.8174323 97.34881655 302.5 96.3125 C267.31235012 80.59562473 227.39933228 79.75020368 191.5 93.3125 C187.17226509 94.99730537 182.86494456 96.73134667 178.56176758 98.4777832 C145.17333675 112.00973054 107.09224728 112.39767262 73.54541016 98.50292969 C72.20047142 97.92676254 70.85624686 97.34892579 69.51269531 96.76953125 C45.19926491 86.28901255 20.67553061 84.04414192 -5.5 83.3125 C-22.12326327 33.70484317 -22.12326327 33.70484317 -26.375 18 C-26.6987561 16.82425415 -26.6987561 16.82425415 -27.02905273 15.62475586 C-27.22313721 14.88620361 -27.41722168 14.14765137 -27.6171875 13.38671875 C-27.87411377 12.42125122 -27.87411377 12.42125122 -28.13623047 11.4362793 C-28.60318015 8.71010795 -28.55546885 6.07244367 -28.5 3.3125 C-18.88424414 0.61343004 -9.96000785 -0.12241898 0 0 Z " fill="#23498C" transform="translate(172.5,511.6875)"/>
<path d="M0 0 C5.21160483 2.06072283 10.4512041 3.82627597 15.84179688 5.359375 C16.83687256 5.65146851 16.83687256 5.65146851 17.85205078 5.94946289 C29.67747897 9.17496702 41.81542763 9.90110432 54.00610352 9.86254883 C56.08793277 9.85938088 58.16834358 9.88301095 60.25 9.90820312 C73.14292913 9.97031536 85.6783747 8.2469053 97.71679688 3.421875 C98.48644775 3.12764648 99.25609863 2.83341797 100.04907227 2.53027344 C104.56678256 0.79376311 109.05709919 -1.0119854 113.55273438 -2.8046875 C150.54744684 -17.53140581 188.27966426 -18.73326128 225.65429688 -3.453125 C236.51745851 0.95737217 247.06221284 4.82372936 258.58886719 7.12060547 C260.001101 7.41206649 261.40698381 7.73564465 262.80566406 8.08642578 C270.08857662 9.8042664 277.30178142 9.85135428 284.73876953 9.80761719 C286.88668502 9.79696236 289.03375153 9.80753037 291.18164062 9.8203125 C312.36824144 9.84373723 330.62671996 4.35200227 350.04882812 -3.59375 C360.86997544 -8.00407728 372.83026289 -12.80191656 384.65429688 -12.453125 C368.76941445 21.04430077 347.60402548 52.29156832 324.98291016 81.57055664 C324.34595215 82.39547607 323.70899414 83.22039551 323.05273438 84.0703125 C322.49247559 84.79138184 321.9322168 85.51245117 321.35498047 86.25537109 C319.51442763 88.61870547 319.51442763 88.61870547 317.92163086 91.78125 C315.65429688 94.546875 315.65429688 94.546875 312.16870117 95.29150391 C310.77219554 95.31717167 309.37480454 95.3089914 307.97851562 95.2734375 C307.22526505 95.27620193 306.47201447 95.27896637 305.69593811 95.28181458 C303.24296981 95.27896867 300.79407258 95.22853973 298.34179688 95.171875 C297.5045105 95.16100861 296.66722412 95.15014221 295.80456543 95.13894653 C282.11208689 94.96047297 268.97403309 93.88562618 255.65429688 90.546875 C254.6344873 90.29486328 253.61467773 90.04285156 252.56396484 89.78320312 C241.18385863 86.91018706 230.19280079 83.54108037 219.35302734 79.04516602 C195.65251959 69.52975073 167.6143818 67.63574718 142.65429688 72.546875 C141.51992188 72.74539063 140.38554688 72.94390625 139.21679688 73.1484375 C128.28502382 75.44133058 118.17552009 79.84370426 107.94482422 84.21826172 C90.37255555 91.72695003 74.53017317 94.82775713 55.46679688 94.859375 C54.79051239 94.86286957 54.11422791 94.86636414 53.41744995 94.8699646 C40.94880885 94.90564917 28.78097052 93.70639719 16.71679688 90.484375 C15.93667236 90.2788501 15.15654785 90.0733252 14.3527832 89.86157227 C6.63619966 87.72207393 -0.72203482 84.76348221 -8.14599609 81.78613281 C-28.78042355 73.53236183 -50.11878154 69.37317617 -72.34570312 70.546875 C-73.20019043 70.58554687 -74.05467773 70.62421875 -74.93505859 70.6640625 C-92.26506578 71.54071527 -107.80461879 75.81250888 -123.55004883 83.00170898 C-135.70593352 88.50871865 -148.23762007 91.33479257 -161.34570312 93.546875 C-162.08820313 93.72105957 -162.83070313 93.89524414 -163.59570312 94.07470703 C-167.02135509 94.66288272 -170.29535207 94.67668399 -173.77148438 94.6796875 C-174.47790573 94.68064423 -175.18432709 94.68160095 -175.91215515 94.68258667 C-177.4022938 94.68326484 -178.89243545 94.68143593 -180.38256836 94.67724609 C-182.64053138 94.67191671 -184.89829331 94.67719099 -187.15625 94.68359375 C-188.61132856 94.68293244 -190.06640699 94.68165018 -191.52148438 94.6796875 C-192.83028564 94.67855957 -194.13908691 94.67743164 -195.48754883 94.67626953 C-206.42661925 94.30939569 -206.42661925 94.30939569 -209.82226562 91.4921875 C-210.53125 90.56148437 -211.24023438 89.63078125 -211.97070312 88.671875 C-212.59090332 87.87076294 -212.59090332 87.87076294 -213.22363281 87.0534668 C-214.1355972 85.86507365 -215.03616402 84.66787051 -215.92675781 83.46337891 C-217.36771892 81.51713929 -218.84212672 79.60015946 -220.32226562 77.68359375 C-228.19836267 67.35274975 -235.44456796 56.59443454 -242.65820312 45.796875 C-243.35399475 44.75788559 -243.35399475 44.75788559 -244.06384277 43.69790649 C-250.44975952 34.14631558 -256.53553047 24.45894363 -262.34570312 14.546875 C-263.24156128 13.02296143 -263.24156128 13.02296143 -264.15551758 11.46826172 C-265.73085903 8.77198195 -267.29112967 6.06766985 -268.84570312 3.359375 C-269.3690625 2.45896484 -269.89242187 1.55855469 -270.43164062 0.63085938 C-271.17800781 -0.66948242 -271.17800781 -0.66948242 -271.93945312 -1.99609375 C-272.37966797 -2.75946045 -272.81988281 -3.52282715 -273.2734375 -4.30932617 C-274.30102672 -6.3638027 -274.89003792 -8.20948299 -275.34570312 -10.453125 C-261.92461717 -8.73710459 -248.91825611 -5.24646747 -236.28320312 -0.453125 C-229.13091381 2.25830006 -222.01942695 4.62721669 -214.59570312 6.484375 C-213.8105835 6.68353516 -213.02546387 6.88269531 -212.21655273 7.08789062 C-180.79359391 14.60985968 -148.17576178 9.19597568 -119.09570312 -3.578125 C-79.58416847 -20.84715239 -39.06001566 -15.66523056 0 0 Z " fill="#23498C" transform="translate(483.345703125,694.453125)"/>
<path d="M0 0 C0.33 0 0.66 0 1 0 C2.99361967 10.53366423 4.60940316 21.07248378 5.90942383 31.71508789 C6.48215376 36.33224094 7.13766932 40.9031902 7.99609375 45.4765625 C9.23551755 52.08173435 10.03660609 58.7266496 10.85546875 65.39453125 C11.45080643 70.12522531 12.12017504 74.81317581 13 79.5 C14.23844817 86.09720868 15.03758234 92.73459904 15.85546875 99.39453125 C16.45080643 104.12522531 17.12017504 108.81317581 18 113.5 C19.23844817 120.09720868 20.03758234 126.73459904 20.85546875 133.39453125 C21.68389216 139.97737966 22.74774797 146.48447546 24 153 C26.88213645 149.54483491 29.26424113 146.04761967 31.51171875 142.15234375 C31.83681931 141.59242737 32.16191986 141.03251099 32.49687195 140.45562744 C33.19727166 139.24905903 33.89599827 138.04151812 34.59320068 136.83309937 C36.48572204 133.55478033 38.39292187 130.28503507 40.30078125 127.015625 C40.69269653 126.34375656 41.08461182 125.67188812 41.48840332 124.97966003 C46.04292925 117.18920554 50.74518752 109.49122324 55.45043945 101.79101562 C59.41148995 95.30031477 63.32481128 88.78416507 67.1875 82.234375 C67.83810898 81.13232475 67.83810898 81.13232475 68.50186157 80.00801086 C70.62235371 76.41468619 72.73755359 72.81839439 74.84521484 69.2175293 C75.61279125 67.91445388 76.38052414 66.61147063 77.1484375 65.30859375 C77.49455078 64.71306702 77.84066406 64.11754028 78.19726562 63.50396729 C79.87833984 60.66149349 81.50817361 58.1879569 84 56 C83.66197644 66.39422459 82.22380122 76.4629349 80.51708984 86.71313477 C79.32285881 93.89753739 78.29999878 101.0673579 77.4921875 108.3046875 C77.09191288 111.30992395 76.59768677 114.24899976 76.0390625 117.2265625 C74.97323775 122.96162133 74.2108457 128.71168499 73.5 134.5 C72.69852582 141.02628975 71.79263986 147.47797657 70.48242188 153.92382812 C69.75025965 158.59247391 69.39272402 163.29224357 69 168 C77.48741485 159.53581583 85.97208191 151.06888769 94.45330906 142.59850311 C98.39210096 138.66491664 102.33181213 134.73226038 106.27368164 130.80175781 C110.08195379 127.004398 113.88773586 123.20455859 117.69184685 119.4030304 C119.13932913 117.95738737 120.58768725 116.51262073 122.03695869 115.06877136 C124.07591625 113.03713514 126.11165928 111.00232701 128.14672852 108.96679688 C128.73871033 108.37841034 129.33069214 107.7900238 129.94061279 107.18380737 C133.57299926 103.54258251 137.00547196 99.77564031 140.35417938 95.87166595 C143.24515927 92.58397557 146.3578887 89.51947541 149.46484375 86.4375 C150.48210289 85.42236328 150.48210289 85.42236328 151.51991272 84.38671875 C153.65674305 82.25542325 155.79704823 80.12765782 157.9375 78 C159.39932123 76.54320221 160.86091187 75.08617299 162.32226562 73.62890625 C165.878854 70.08326027 169.43856016 66.54077261 173 63 C173 66.16476869 172.54156621 67.26488708 171.12670898 70.01123047 C170.71405792 70.81947266 170.30140686 71.62771484 169.87625122 72.46044922 C169.19307327 73.77553467 169.19307327 73.77553467 168.49609375 75.1171875 C168.0264621 76.03274414 167.55683044 76.94830078 167.07296753 77.89160156 C165.53358987 80.88907941 163.98562323 83.88203101 162.4375 86.875 C161.37017492 88.94911816 160.3033642 91.02350108 159.23706055 93.09814453 C156.16574491 99.06942049 153.08395155 105.03524285 150 111 C149.25349049 112.44526589 148.50706108 113.89057317 147.76074219 115.3359375 C145.37286137 119.95956402 142.98301848 124.5821622 140.5871582 129.20166016 C137.02549022 136.07048556 133.48386146 142.94916986 129.95703125 149.8359375 C129.29623314 151.1260524 129.29623314 151.1260524 128.62208557 152.44223022 C126.45898179 156.66617526 124.29741526 160.89089831 122.13793945 165.11669922 C116.84735596 175.4590503 111.46316552 185.74777025 106 196 C112.66744415 193.04341687 119.3339087 190.08463196 126 187.125 C127.00530762 186.67881317 128.01061523 186.23262634 129.04638672 185.7729187 C140.19057698 180.82566011 151.32787675 175.86431864 162.4375 170.83984375 C163.33702393 170.43334595 164.23654785 170.02684814 165.16333008 169.60803223 C169.41579111 167.6857427 173.66636179 165.75944524 177.9140625 163.82666016 C186.51547682 159.92634986 195.12763669 156.25169764 204 153 C204 155 204 155 201.8984375 157.19921875 C201.44049805 157.63927246 200.98255859 158.07932617 200.51074219 158.53271484 C197.77513251 161.18963375 195.21586871 164.01545332 192.625 166.8125 C192.0484668 167.43415039 191.47193359 168.05580078 190.87792969 168.69628906 C187.41581592 172.43990728 184.00410907 176.21801226 180.671875 180.078125 C178.64241927 182.41105074 176.572353 184.70511245 174.5 187 C171.81016569 189.98062721 169.13689636 192.97245233 166.5 196 C163.10746907 199.89512811 159.64805799 203.72782763 156.1875 207.5625 C153.70618103 210.32739828 151.26288279 213.12330719 148.82421875 215.92578125 C145.95736798 219.18551949 143.03411516 222.39410784 140.11328125 225.60546875 C137.99127508 228.00988609 135.98279012 230.48011097 134 233 C148.8974303 230.78060993 163.70061601 228.1635543 178.5 225.375 C196.54073034 221.97830903 214.60632119 218.73669653 232.6875 215.5625 C233.94272461 215.34140564 235.19794922 215.12031128 236.49121094 214.89251709 C240.08097932 214.26066743 243.67124519 213.63173499 247.26171875 213.00390625 C248.3307695 212.81571823 249.39982025 212.62753021 250.50126648 212.43363953 C255.99103031 211.47832182 261.46379591 210.63518 267 210 C264.07024778 212.2875096 261.05999635 214.19978792 257.8359375 216.046875 C256.80927979 216.63694336 255.78262207 217.22701172 254.72485352 217.83496094 C253.61940186 218.46692383 252.5139502 219.09888672 251.375 219.75 C250.21330032 220.41671353 249.05176331 221.08371058 247.89038086 221.75097656 C245.47263782 223.13977791 243.05419642 224.52735146 240.63525391 225.9140625 C233.85440928 229.80291341 227.08623908 233.71382027 220.31811523 237.62475586 C215.27952373 240.53545289 210.23696325 243.43827481 205.1796875 246.31640625 C204.28950928 246.82526367 203.39933105 247.33412109 202.48217773 247.85839844 C200.83052187 248.80220179 199.17651348 249.74190449 197.51977539 250.67675781 C193.62420232 252.67854068 193.62420232 252.67854068 191 256 C189.35510806 256.87721403 187.66591121 257.67196522 185.9609375 258.42578125 C184.38892578 259.1228418 184.38892578 259.1228418 182.78515625 259.83398438 C181.65980469 260.32189453 180.53445313 260.80980469 179.375 261.3125 C178.23160156 261.80943359 177.08820313 262.30636719 175.91015625 262.81835938 C167.71905159 266.33877185 159.62808853 269.69203501 151 272 C149.83726562 272.31582031 148.67453125 272.63164062 147.4765625 272.95703125 C116.52972547 279.83061878 83.6347946 274.47764102 54.83984375 262.23828125 C36.62626838 254.59090138 18.42489821 251.54225748 -1.25 251.5625 C-1.9411087 251.56218781 -2.63221741 251.56187561 -3.3442688 251.56155396 C-21.94576208 251.62556613 -38.81131211 255.24969545 -55.9765625 262.3515625 C-67.71812142 267.20223156 -79.47053655 271.69613826 -92 274 C-92.89090332 274.17200928 -93.78180664 274.34401855 -94.69970703 274.52124023 C-100.52099524 275.36571029 -106.39373462 275.18592966 -112.26489258 275.18530273 C-114.5316093 275.18747046 -116.79782348 275.20560355 -119.06445312 275.22460938 C-133.17089462 275.28424687 -145.55049715 273.19963193 -158.9375 268.5625 C-160.11634766 268.16740234 -161.29519531 267.77230469 -162.50976562 267.36523438 C-167.88586473 265.53875865 -172.95315584 263.6227805 -178 261 C-178 260.34 -178 259.68 -178 259 C-178.7007666 258.73678955 -179.4015332 258.4735791 -180.12353516 258.20239258 C-183.22237501 256.9070449 -186.08497372 255.38857113 -189.0234375 253.76171875 C-189.88429459 253.2864399 -189.88429459 253.2864399 -190.76254272 252.80155945 C-192.63504339 251.76654475 -194.50508045 250.72716957 -196.375 249.6875 C-197.68644999 248.96096767 -198.9979743 248.23456947 -200.30957031 247.50830078 C-209.98929179 242.14236822 -219.63196848 236.71196045 -229.2578125 231.25 C-236.76684696 226.99216457 -244.30463216 222.78562102 -251.84277344 218.57958984 C-253.33212402 217.74741943 -253.33212402 217.74741943 -254.8515625 216.8984375 C-256.16374756 216.16633057 -256.16374756 216.16633057 -257.50244141 215.41943359 C-260.02624774 213.98508266 -262.51685541 212.50346863 -265 211 C-261.61512864 209.87170955 -260.36499732 210.14295495 -256.9296875 210.86328125 C-255.83527344 211.08556396 -254.74085938 211.30784668 -253.61328125 211.53686523 C-252.37964844 211.79282471 -251.14601563 212.04878418 -249.875 212.3125 C-234.2973974 215.45810789 -218.65575548 218.21192084 -203 220.9375 C-200.52049035 221.37001707 -198.04099814 221.80263417 -195.56152344 222.23535156 C-191.88300753 222.87726059 -188.20448218 223.51911425 -184.52587891 224.16052246 C-174.23132232 225.95651525 -163.940115 227.77068527 -153.65332031 229.61062622 C-151.98062524 229.90957847 -150.30777563 230.20766749 -148.63476562 230.50485229 C-146.36287664 230.90856202 -144.09152097 231.31513804 -141.8203125 231.72265625 C-140.56492676 231.94703369 -139.30954102 232.17141113 -138.01611328 232.40258789 C-135 233 -135 233 -132 234 C-136.08612313 229.25842367 -140.26011144 224.6043842 -144.5 220 C-148.1441857 216.04141637 -151.73913779 212.04823168 -155.265625 207.984375 C-158.79500714 203.94625309 -162.40634226 199.98085319 -166 196 C-168.24796977 193.50312008 -170.49508007 191.00546849 -172.7421875 188.5078125 C-174.26708244 186.81407106 -175.79315402 185.12138831 -177.3203125 183.4296875 C-180.69912708 179.68435744 -184.06895965 175.93481793 -187.375 172.125 C-190.94711497 168.01369787 -194.64304379 164.01874546 -198.35693359 160.03564453 C-201.89148141 156.21703718 -201.89148141 156.21703718 -203 154 C-198.08321179 155.53761377 -193.44511018 157.48190993 -188.74609375 159.5703125 C-187.94448822 159.92380768 -187.14288269 160.27730286 -186.31698608 160.64151001 C-184.58970872 161.40340836 -182.8629384 162.16645704 -181.1366272 162.93054199 C-176.53380805 164.96745014 -171.92696198 166.99521036 -167.3203125 169.0234375 C-166.37938248 169.43791138 -165.43845245 169.85238525 -164.4690094 170.27941895 C-154.93403359 174.47610867 -145.37663981 178.62028692 -135.8125 182.75 C-135.05943573 183.07534729 -134.30637146 183.40069458 -133.53048706 183.73590088 C-124.02757566 187.84088715 -114.5168352 191.92739997 -105 196 C-117.15257337 172.75131602 -117.15257337 172.75131602 -129.875 149.8125 C-134.64083018 141.4941758 -139.14916191 133.07176792 -143.55224609 124.55639648 C-146.96740657 117.95828845 -150.44531877 111.39905583 -154 104.875 C-154.4856543 103.98321045 -154.97130859 103.0914209 -155.47167969 102.17260742 C-158.07554741 97.42136631 -160.73451908 92.70777109 -163.45703125 88.0234375 C-164.01841797 87.0555127 -164.57980469 86.08758789 -165.15820312 85.09033203 C-166.24168651 83.23005373 -167.33257295 81.3740629 -168.43164062 79.52294922 C-168.91439453 78.69553223 -169.39714844 77.86811523 -169.89453125 77.015625 C-170.32612549 76.28633789 -170.75771973 75.55705078 -171.20239258 74.80566406 C-171.59720825 73.91186035 -171.59720825 73.91186035 -172 73 C-171.67 72.34 -171.34 71.68 -171 71 C-160.7008389 80.64766638 -150.41483351 90.30913538 -140.14111328 99.98388672 C-136.59470137 103.32325611 -133.04730331 106.66157757 -129.5 110 C-128.08332855 111.33332826 -126.66666189 112.66666159 -125.25 114 C-124.54875 114.66 -123.8475 115.32 -123.125 116 C-116.75 122 -116.75 122 -114.62475586 124.00024414 C-113.20892211 125.33278398 -111.79306926 126.66530353 -110.37719727 127.99780273 C-106.82262962 131.34310987 -103.26840069 134.68877549 -99.71484375 138.03515625 C-98.28908566 139.37762877 -96.86330453 140.72007681 -95.4375 142.0625 C-94.74382324 142.71565186 -94.05014648 143.36880371 -93.33544922 144.04174805 C-89.7211296 147.44358439 -86.10336112 150.84166855 -82.48046875 154.234375 C-81.74965088 154.91878662 -81.01883301 155.60319824 -80.26586914 156.30834961 C-78.87357793 157.61172726 -77.48086002 158.91464931 -76.08764648 160.21704102 C-75.46317627 160.80155029 -74.83870605 161.38605957 -74.1953125 161.98828125 C-73.64891113 162.49915283 -73.10250977 163.01002441 -72.53955078 163.53637695 C-71.00032446 164.99969155 -69.49914279 166.49578935 -68 168 C-69.28157453 155.69670714 -70.8564084 143.45487492 -72.61900711 131.21166039 C-73.05039965 128.21419429 -73.47807699 125.21621718 -73.90487671 122.21809387 C-74.96267191 114.79210014 -76.0258792 107.36688431 -77.090271 99.9418335 C-77.99648264 93.6197445 -78.89997861 87.2972804 -79.79951096 80.97423744 C-80.22002403 78.02630556 -80.64458211 75.07897415 -81.06924438 72.13163757 C-81.32583708 70.33022057 -81.5822264 68.52877457 -81.83837891 66.72729492 C-81.95679642 65.91328217 -82.07521393 65.09926941 -82.19721985 64.2605896 C-82.73147302 60.47312392 -83.14253521 56.83727679 -83 53 C-79.14053061 57.44066007 -76.41690447 62.32788553 -73.5625 67.4375 C-69.38285402 74.83487621 -65.14939546 82.193656 -60.8125 89.5 C-55.70577788 98.11138102 -50.62406208 106.73702269 -45.5625 115.375 C-45.20605408 115.98322601 -44.84960815 116.59145203 -44.48236084 117.21810913 C-37.30405464 129.46851802 -30.14732268 141.73148915 -23 154 C-21.8942631 147.51050526 -20.82379293 141.03150113 -20 134.5 C-19.1761247 127.96784583 -18.09837967 121.49125205 -17 115 C-14.73821506 101.47004326 -12.63418872 87.94600838 -11.03930664 74.31933594 C-10.23338799 67.50527873 -9.16242088 60.76161755 -8 54 C-5.00856466 36.04051566 -2.41913643 18.04434639 0 0 Z " fill="#FABC0D" transform="translate(652,199)"/>
<path d="M0 0 C0.86625 -0.61875 1.7325 -1.2375 2.625 -1.875 C10.12471285 -6.59704142 18.37463026 -7.48156864 27.01757812 -5.54882812 C29.18996663 -4.96262805 31.34543062 -4.33611147 33.5 -3.6875 C52.82052449 2.10027223 72.97972536 2.81413007 93 4 C93 9.28 93 14.56 93 20 C94.423125 19.95875 95.84625 19.9175 97.3125 19.875 C105.90274802 20.03556538 114.45545926 21.10057466 123 22 C123 69.85 123 117.7 123 167 C117.18548579 167 112.33762293 166.98286903 106.74609375 166.28515625 C103.09749916 165.9062837 99.44298271 165.70116334 95.78125 165.5 C95.03327148 165.45883057 94.28529297 165.41766113 93.51464844 165.37524414 C91.17652566 165.24834433 88.83829124 165.12375492 86.5 165 C69.18927043 164.08382328 69.18927043 164.08382328 62.48242188 163.25439453 C56.62791567 162.65443432 50.7369838 162.39850526 44.86181641 162.07006836 C42.50530488 161.93779776 40.1491454 161.80020301 37.79296875 161.66210938 C30.52395068 161.24467092 23.28417273 160.87469886 16 161 C15.34 162.32 14.68 163.64 14 165 C4.43 165 -5.14 165 -15 165 C-15.99 162.525 -15.99 162.525 -17 160 C-18.134375 160.15597656 -19.26875 160.31195313 -20.4375 160.47265625 C-24.95562712 161.03643132 -29.45300159 161.25665347 -34 161.4375 C-41.68602454 161.77897248 -49.33620179 162.32671221 -57 163 C-65.13267665 163.71238424 -73.24635998 164.25263851 -81.40209961 164.60327148 C-89.12682635 164.95682182 -96.81925746 165.61733117 -104.51757812 166.33984375 C-105.46181641 166.42492187 -106.40605469 166.51 -107.37890625 166.59765625 C-108.1994751 166.67508057 -109.02004395 166.75250488 -109.86547852 166.83227539 C-114.57058637 167.08404026 -119.28816114 167 -124 167 C-124 119.15 -124 71.3 -124 22 C-114.68596757 18.89532252 -103.709739 19.91009501 -94 20 C-94 14.72 -94 9.44 -94 4 C-91.17695313 3.80083984 -91.17695313 3.80083984 -88.296875 3.59765625 C-85.78124726 3.41930951 -83.26562241 3.24092191 -80.75 3.0625 C-79.51507813 2.97548828 -78.28015625 2.88847656 -77.0078125 2.79882812 C-74.53250598 2.62295108 -72.05740512 2.44415534 -69.58251953 2.26245117 C-67.28711357 2.09429243 -64.9912335 1.93241607 -62.69482422 1.77856445 C-56.82286619 1.35357744 -51.30432731 0.61193108 -45.625 -0.9375 C-44.96628906 -1.10701172 -44.30757813 -1.27652344 -43.62890625 -1.45117188 C-39.69429 -2.47980416 -35.85564231 -3.71294462 -32 -5 C-20.00714361 -7.30631854 -10.8063568 -5.57909583 0 0 Z " fill="#264A8B" transform="translate(309,182)"/>
<path d="M0 0 C8.90953682 3.8331972 17.98930586 6.3047474 27.4375 8.4375 C28.50436035 8.6852417 28.50436035 8.6852417 29.59277344 8.93798828 C41.55240329 11.64387552 53.21778963 11.84678484 65.4375 11.4375 C67.24927734 11.39109375 67.24927734 11.39109375 69.09765625 11.34375 C87.40111289 10.43651547 104.53230102 3.09083364 121.28271484 -3.75634766 C155.7307032 -17.79119392 194.04747023 -16.93299905 228.4375 -2.5625 C229.4574707 -2.14121826 229.4574707 -2.14121826 230.49804688 -1.71142578 C234.50225651 -0.04864483 238.4788813 1.66835503 242.4375 3.4375 C240.93028852 7.20131862 238.78833069 9.02213482 235.625 11.5 C234.62855469 12.29148437 233.63210938 13.08296875 232.60546875 13.8984375 C231.81922119 14.52250488 231.81922119 14.52250488 231.01708984 15.15917969 C228.96465512 16.82016086 226.97583689 18.55246347 224.98388672 20.28515625 C216.21252033 27.88497607 206.8405179 34.64767719 197.4375 41.4375 C196.1705472 42.35803752 194.90361801 43.27860755 193.63671875 44.19921875 C156.71251762 70.91647892 116.80511901 93.58955794 74.4375 110.4375 C73.53322266 110.7984375 72.62894531 111.159375 71.69726562 111.53125 C69.28879727 112.47329415 66.86993142 113.37197072 64.4375 114.25 C63.76299805 114.51079346 63.08849609 114.77158691 62.39355469 115.0402832 C53.03303422 118.23094488 43.97783357 113.75641266 35.375 110.0625 C34.34133301 109.62405762 33.30766602 109.18561523 32.24267578 108.73388672 C-27.30919793 83.17317747 -79.6420721 46.53182168 -128.5625 4.4375 C-125.85062666 1.11066654 -122.22342328 -0.29289034 -118.375 -1.9375 C-117.66375977 -2.24204102 -116.95251953 -2.54658203 -116.21972656 -2.86035156 C-78.14399147 -18.81893423 -37.60981922 -16.1958054 0 0 Z " fill="#23498C" transform="translate(480.5625,862.5625)"/>
<path d="M0 0 C1.12148438 -0.02578125 2.24296875 -0.0515625 3.3984375 -0.078125 C6.97935126 0.28603572 8.77351793 1.0937556 11.625 3.25 C13.70298633 6.36697949 13.87403092 7.02668235 13.86550903 10.55900574 C13.86825836 11.43820175 13.87100769 12.31739777 13.87384033 13.22323608 C13.8630545 14.66577255 13.8630545 14.66577255 13.85205078 16.13745117 C13.85234283 17.15226059 13.85263489 18.16707001 13.85293579 19.21263123 C13.85154049 22.57283018 13.83596972 25.93280844 13.8203125 29.29296875 C13.81658309 31.62038553 13.81373578 33.94780387 13.81173706 36.27522278 C13.80409498 42.40567345 13.7844415 48.53602959 13.7623291 54.66644287 C13.74188308 60.9201937 13.732738 67.17395977 13.72265625 73.42773438 C13.70119621 85.70186448 13.66705328 97.97592439 13.625 110.25 C12.68906006 110.09136475 11.75312012 109.93272949 10.78881836 109.76928711 C-0.11288373 107.97995766 -8.9384499 109.98028236 -19.42260742 112.89135742 C-25.95532489 114.6826635 -32.4245125 116.12426532 -39.125 117.125 C-40.28334351 117.30446167 -40.28334351 117.30446167 -41.46508789 117.48754883 C-47.57656395 118.34164322 -53.0606389 118.25 -59.375 118.25 C-59.375 82.28 -59.375 46.31 -59.375 9.25 C-47 8.26 -47 8.26 -34.375 7.25 C-29.60493208 6.34994214 -25.13949782 5.45534149 -20.5 4.1875 C-19.44554687 3.91873047 -18.39109375 3.64996094 -17.3046875 3.37304688 C-4.41862348 0.0606676 -4.41862348 0.0606676 0 0 Z " fill="#FDFDFE" transform="translate(289.375,189.75)"/>
<path d="M0 0 C2.06040232 0.68862252 4.1188459 1.38312093 6.17578125 2.08203125 C11.10943391 3.64177049 16.17035615 4.51889564 21.2578125 5.421875 C22.15290527 5.58848633 23.04799805 5.75509766 23.97021484 5.92675781 C33.09077909 7.49377661 41.63845505 7.71038292 51.0703125 8.234375 C51.0703125 44.204375 51.0703125 80.174375 51.0703125 117.234375 C35.23395115 117.234375 21.68539045 115.27193902 6.54492188 110.62280273 C-2.72990495 107.89224887 -11.43337495 107.24277239 -20.9296875 109.234375 C-21.04543653 95.48286478 -21.13432972 81.73147007 -21.18874836 67.9795723 C-21.21486403 61.59427967 -21.25029914 55.20931983 -21.30688477 48.82421875 C-21.36113259 42.66450471 -21.39109318 36.50511115 -21.40407372 30.3451767 C-21.41332647 27.99275414 -21.43139461 25.64034951 -21.45833778 23.28806305 C-21.49453062 19.99796878 -21.49963675 16.70920598 -21.49731445 13.41894531 C-21.51529083 12.44214813 -21.53326721 11.46535095 -21.55178833 10.45895386 C-21.50129218 3.86604317 -21.50129218 3.86604317 -18.57389832 0.63104248 C-12.89129322 -2.37049949 -6.07477355 -1.58754082 0 0 Z " fill="#FDFEFE" transform="translate(335.9296875,190.765625)"/>
<path d="M0 0 C4.62 0 9.24 0 14 0 C15 1 15 1 15.12304783 3.01274967 C15.12212604 3.90412349 15.12120424 4.7954973 15.12025452 5.71388245 C15.12231651 7.2431134 15.12231651 7.2431134 15.12442017 8.80323792 C15.12082489 9.931082 15.11722961 11.05892609 15.11352539 12.22094727 C15.11367142 13.40127533 15.11381744 14.58160339 15.1139679 15.79769897 C15.11338895 19.04342108 15.10835986 22.28910055 15.10139394 25.53481412 C15.09515962 28.92343032 15.09455654 32.31204728 15.09336853 35.70066833 C15.09025544 42.12155804 15.08204236 48.54243081 15.07201904 54.96331304 C15.0608572 62.27153825 15.05534727 69.57976424 15.05032361 76.88799584 C15.03985973 91.92534002 15.02226073 106.96266832 15 122 C9.06981191 122.05817366 3.22165225 121.95620528 -2.69360352 121.46508789 C-3.74212494 121.37971519 -3.74212494 121.37971519 -4.81182861 121.2926178 C-7.08453218 121.10656439 -9.35670381 120.91472468 -11.62890625 120.72265625 C-13.22970469 120.59020912 -14.83053024 120.45808923 -16.43138123 120.32627869 C-19.7707913 120.05049084 -23.1099657 119.77205747 -26.44897461 119.49145508 C-30.70731037 119.13362457 -34.96601594 118.78046071 -39.22488499 118.42903996 C-43.31803009 118.09107001 -47.41097196 117.75066802 -51.50390625 117.41015625 C-52.2730945 117.34638353 -53.04228275 117.28261082 -53.83477974 117.21690559 C-67.5254092 116.07917178 -67.5254092 116.07917178 -73.11962891 115.43115234 C-79.3440841 114.73954621 -85.55448363 114.61644618 -91.8125 114.5625 C-92.56312714 114.55566193 -93.31375427 114.54882385 -94.08712769 114.54177856 C-115.43832151 114.44956947 -136.70266271 116.7565394 -157.93481445 118.77758789 C-159.01749949 118.88012501 -159.01749949 118.88012501 -160.12205696 118.98473358 C-163.51942329 119.30680589 -166.91599562 119.63397611 -170.31182861 119.97201538 C-180.89370165 120.9948079 -191.34135757 121.46706788 -202 122 C-202 82.07 -202 42.14 -202 1 C-197.05 1 -192.1 1 -187 1 C-187 35.98 -187 70.96 -187 107 C-154.60744156 105.57347661 -154.60744156 105.57347661 -122.6484375 99.890625 C-119.18821618 99.0459457 -116.2368006 98.73158599 -112.6875 98.75 C-111.68074219 98.74484375 -110.67398438 98.7396875 -109.63671875 98.734375 C-107 99 -107 99 -104 101 C-104 101.66 -104 102.32 -104 103 C-100.74899223 102.9189487 -97.49983665 102.80612351 -94.25 102.6875 C-93.32960938 102.66494141 -92.40921875 102.64238281 -91.4609375 102.61914062 C-90.57148438 102.58369141 -89.68203125 102.54824219 -88.765625 102.51171875 C-87.54020996 102.47244263 -87.54020996 102.47244263 -86.29003906 102.43237305 C-83.52918789 101.91110786 -82.17595481 100.72782283 -80 99 C-73.95918257 98.15478275 -67.89377105 98.52915012 -62.0625 100.3125 C-42.2534611 106.29471688 -20.18452112 105.81267523 0 107 C0 71.69 0 36.38 0 0 Z " fill="#FAFAFC" transform="translate(402,214)"/>
<path d="M0 0 C0 3.70099611 -0.57407968 4.2610577 -3 7 C-4.06329081 7.92764868 -5.13900002 8.84114708 -6.22290039 9.74462891 C-9.77642965 12.76514884 -13.09068518 15.96123872 -16.37109375 19.2734375 C-16.93828629 19.84204498 -17.50547882 20.41065247 -18.08985901 20.99649048 C-19.87479913 22.78696236 -21.65620256 24.58090484 -23.4375 26.375 C-24.65796939 27.60049323 -25.87867053 28.82575572 -27.09960938 30.05078125 C-30.06908756 33.03119774 -33.03540257 36.01472894 -36 39 C-36 36 -36 36 -34.63330078 34.27253723 C-33.99376465 33.63966293 -33.35422852 33.00678864 -32.6953125 32.35473633 C-31.97456543 31.63421585 -31.25381836 30.91369537 -30.51123047 30.17134094 C-29.72377441 29.39936874 -28.93631836 28.62739655 -28.125 27.83203125 C-27.32594238 27.03721848 -26.52688477 26.2424057 -25.70361328 25.42350769 C-23.14267606 22.87940146 -20.57151863 20.34590608 -18 17.8125 C-16.26494326 16.0924843 -14.53055926 14.3717897 -12.796875 12.65039062 C-8.53903311 8.42567671 -4.27274757 4.20963524 0 0 Z " fill="#F2A310" transform="translate(825,262)"/>
<path d="M0 0 C0.66 0.33 1.32 0.66 2 1 C1.67 1.33 1.34 1.66 1 2 C1.66 2.66 2.32 3.32 3 4 C-0.63 4.66 -4.26 5.32 -8 6 C-5.36435544 3.36435544 -3.27929831 1.68169144 0 0 Z " fill="#CD3631" transform="translate(851,448)"/>
<path d="M0 0 C3.77545388 1.09068668 6.47043472 1.9083091 9 5 C5.1936543 4.32829194 1.64793184 3.27253436 -2 2 C-1.34 1.34 -0.68 0.68 0 0 Z " fill="#CF3E39" transform="translate(465,454)"/>
</svg>
